<svg id="图层_1" data-name="图层 1" xmlns="http://www.w3.org/2000/svg" viewBox="0 0 500 500"><defs><style>.cls-1{fill:#040000;}</style></defs><title>待遇</title><path class="cls-1" d="M495.6,211.35l1-.67a7.28,7.28,0,0,0,2-10.11L365.54,3.76a7.28,7.28,0,0,0-10.11-2l-309.22,209H7.28A7.28,7.28,0,0,0,0,218V492.17a7.28,7.28,0,0,0,7.28,7.28H492.72a7.28,7.28,0,0,0,7.28-7.28V218A7.28,7.28,0,0,0,495.6,211.35Zm-138-193.41L482.41,202.69l-11.93,8.06H426.26a7.27,7.27,0,0,0-.88-1.81,21.74,21.74,0,0,1,5.83-30.15,7.28,7.28,0,0,0,2-10.11L370.74,76.3a7.28,7.28,0,0,0-10.11-2,21.74,21.74,0,0,1-30.15-5.83,7.28,7.28,0,0,0-10.11-2L107,210.76H72.22Zm52.3,192.72-.15.1H133L323.1,82.28a36.39,36.39,0,0,0,39.24,7.59l55.1,81.54A36.38,36.38,0,0,0,409.85,210.66Zm75.59,274.23H14.56V225.31H485.44Z"/><path class="cls-1" d="M49.18,426.72A26.21,26.21,0,0,1,75.37,452.9a7.28,7.28,0,0,0,7.28,7.28H417.35a7.28,7.28,0,0,0,7.28-7.28,26.21,26.21,0,0,1,26.18-26.18,7.28,7.28,0,0,0,7.28-7.28V290.76a7.28,7.28,0,0,0-7.28-7.28,26.21,26.21,0,0,1-26.18-26.18,7.28,7.28,0,0,0-7.28-7.28H82.65a7.28,7.28,0,0,0-7.28,7.28,26.21,26.21,0,0,1-26.18,26.18,7.28,7.28,0,0,0-7.28,7.28V419.44A7.28,7.28,0,0,0,49.18,426.72Zm7.28-129.33a40.85,40.85,0,0,0,32.81-32.81H410.73a40.85,40.85,0,0,0,32.81,32.81V412.81a40.85,40.85,0,0,0-32.81,32.81H89.27a40.85,40.85,0,0,0-32.81-32.81Z"/><path class="cls-1" d="M96,362.38h32.66a7.28,7.28,0,0,0,0-14.56H96a7.28,7.28,0,0,0,0,14.56Z"/><path class="cls-1" d="M372.25,362.38h32.66a7.28,7.28,0,0,0,0-14.56H372.25a7.28,7.28,0,0,0,0,14.56Z"/><path class="cls-1" d="M211.23,347.32c-2.68.36-4.29,2.32-5.36,4.83a30,30,0,0,0-2,8.4c12.16-2.32,25-3.93,38.26-5.19.36,4.83.54,9.48.72,13.95-10.73,1.07-21.45,2.32-31.65,3.58-2.68.36-4.29,2.32-5.36,4.83a30,30,0,0,0-2,8.4,383.53,383.53,0,0,1,39.51-5.18c.36,12.34.36,24.49,0,38.08H257c.36-13.94.18-26.46-.36-39.15,12.16-.72,24.32-.89,35.58-.89v-11.8c-11.62-.18-23.78.36-36.12,1.07-.18-4.47-.54-9.12-.71-13.77,12.51-.89,25-1.07,36.83-1.07v-11.8c-9.12-.18-18.59.18-28.25.72,9.83-14.3,22-29.5,33.25-42.91-2.32-2-6.44-5.54-9.65-8.22a569.07,569.07,0,0,0-39.15,51c-11.44-16.09-25.57-35.4-39.15-51-3.22,2.68-7.33,6.26-9.65,8.22,12,14.12,24.85,30.57,35,45.23C226.79,345.35,218.92,346.24,211.23,347.32Z"/><path class="cls-1" d="M358.9,142.81l-23.45,15.85a7.28,7.28,0,1,0,8.15,12.06L367,154.87a7.28,7.28,0,0,0-8.15-12.06Z"/><path class="cls-1" d="M188.55,208.62l4.8,1.37H229c-12.28-4.39-25.42-8.77-37.49-12C190.48,201.52,189.26,206.08,188.55,208.62Z"/><path class="cls-1" d="M255.58,208.2c.12-15,1.48-31.85,3.06-46.94-2.62-.28-7.31-.86-10.92-1.22a489.21,489.21,0,0,0-3.33,50h25.94c3.68-2.59,7.34-5.12,10.92-7.54L275.51,194C268.88,198.28,262.25,203.13,255.58,208.2Z"/></svg>