<svg id="图层_1" data-name="图层 1" xmlns="http://www.w3.org/2000/svg" viewBox="0 0 500 500"><defs><style>.cls-1{fill:#040000;}</style></defs><title>定期考核</title><path class="cls-1" d="M436.55,0H63.45a7.28,7.28,0,0,0-7.28,7.28V492.72A7.28,7.28,0,0,0,63.45,500h373.1a7.28,7.28,0,0,0,7.28-7.28V7.28A7.28,7.28,0,0,0,436.55,0Zm-7.28,485.44H70.73V14.56H429.27Z"/><path class="cls-1" d="M132.85,188.74H369.9a7.28,7.28,0,0,0,0-14.56H132.85a7.28,7.28,0,0,0,0,14.56Z"/><path class="cls-1" d="M132.85,241.65H369.9a7.28,7.28,0,0,0,0-14.56H132.85a7.28,7.28,0,0,0,0,14.56Z"/><path class="cls-1" d="M132.85,294.56H369.9a7.28,7.28,0,0,0,0-14.56H132.85a7.28,7.28,0,0,0,0,14.56Z"/><path class="cls-1" d="M267.25,118.36h.41l3.52-.2-6.39,12.62a7.28,7.28,0,1,0,13,6.58L288,117.22l29.77-1.66,10.41,31.06A7.28,7.28,0,1,0,342,142l-9.14-27.27,4.91-.27a7.28,7.28,0,1,0-.81-14.54l-8.89.5L314.51,60.05a7.28,7.28,0,0,0-13.4-1l-22.32,44.07-11.94.67a7.28,7.28,0,0,0,.4,14.55Zm39-37.17L313,101.24l-17.37,1Z"/><path class="cls-1" d="M345.07,68.67l.65,0,17.07-1.52,1,16.12a7.28,7.28,0,0,0,7.26,6.81l.48,0a7.28,7.28,0,0,0,6.8-7.74L377.3,65.83l17.64-1.57a7.28,7.28,0,1,0-1.29-14.51l-17.29,1.54-1.08-16.66a7.28,7.28,0,0,0-14.53.94l1.1,17-17.41,1.55a7.28,7.28,0,0,0,.64,14.54Z"/><path class="cls-1" d="M112.15,433.85l23,3.56,3.56,23a7.28,7.28,0,0,0,12.34,4l37.78-37.78a53.12,53.12,0,0,0,19.34,0l37.78,37.78a7.28,7.28,0,0,0,12.34-4l3.56-23,23-3.56a7.28,7.28,0,0,0,4-12.34L251.27,384a53.79,53.79,0,1,0-105.61,0L108.12,421.5a7.28,7.28,0,0,0,4,12.34Zm156.22-12.19-14,2.18a7.28,7.28,0,0,0-6.08,6.08l-2.18,14-22.62-22.62a54.16,54.16,0,0,0,22.41-22.2Zm-69.91-87.16a39.23,39.23,0,1,1-39.23,39.23A39.27,39.27,0,0,1,198.47,334.49Zm-47.39,64.65a54.16,54.16,0,0,0,22.41,22.2L150.87,444l-2.18-14a7.28,7.28,0,0,0-6.08-6.08l-14-2.18Z"/></svg>