<svg id="图层_1" data-name="图层 1" xmlns="http://www.w3.org/2000/svg" viewBox="0 0 500 500"><defs><style>.cls-1{fill:#040000;}</style></defs><title>前景</title><path class="cls-1" d="M383,499.9a8.26,8.26,0,0,1-8.25-8.25v-153H383c19.16,0,33.25-6.46,43.06-19.76,16.51-22.41,19.23-64.19,7.27-111.78l-1.75-7L425,203a53.29,53.29,0,0,1-20.68,4.17c-12,0-23.2-3.82-31.62-10.74-1-.78-1.88-1.68-2.75-2.54l-4.19-4.14-4.31,4c-9.11,8.49-22.38,13.37-36.42,13.41h0c-.34,0-.68-.07-1-.07l-12.48-.22,7.43,10a97.3,97.3,0,0,1,19.52,58.27,8.25,8.25,0,1,1-16.5,0c0-42.73-35.72-80.22-76.44-80.22h-99a8.23,8.23,0,0,1-1.37-16.34l.17,0,.17,0a8.43,8.43,0,0,1,1.86-.24h82.88c13.76,0,27.65-11.22,27.65-36.29S244,105.69,230.21,105.69H118c-23.15,0-49.71,35.43-56.84,75.83-3.23,18.33-4.28,46.33,9.09,75.64,16.52,36.19,50.28,63.79,100.34,82l5.42,2V491.65a8.25,8.25,0,1,1-16.5,0v-139l-3.85-1.55C103.18,330,68.46,298.36,52.42,257c-12.79-33-10.23-63.27-7.56-78.38,7.59-43,33.68-80,62-87.88l4.5-1.25V49.37c0-13.28,5.22-24.5,15.1-32.45,8.94-7.19,21.41-11.31,34.22-11.31,12.56,0,24.36,3.76,33.24,10.58l.25.22c.25.23.5.45.77.67l4.58,3.72,3.9-4.43C212.45,6.19,227.17.1,242.81.1c12.56,0,24.36,3.76,33.24,10.58A41.31,41.31,0,0,1,285,20.15l3.47,5.08,5.08-3.47a56,56,0,0,1,31.4-9.26c12.56,0,24.36,3.76,33.24,10.58a40.23,40.23,0,0,1,15.46,26.35l1.23,8.1,7.43-3.44a52.9,52.9,0,0,1,22.1-4.81c12,0,23.2,3.82,31.62,10.75,9.68,8,15,19.68,15,33v70.37a43.73,43.73,0,0,1-5,21l-1.21,2.25.75,2.45c17.73,58.19,15.44,110.38-6.11,139.63-10.37,14.06-24.8,22.63-42.89,25.45l-5.2.81V491.65A8.26,8.26,0,0,1,383,499.9ZM404.36,65.78c-11.21,0-30.18,5.74-30.18,27.27v70.37c0,21.52,18.94,27.26,30.13,27.26s30.18-5.74,30.18-27.26V93.05c0-8.42-3.11-15.43-9-20.27C420.08,68.33,412.38,65.78,404.36,65.78ZM324.91,29c-15.81,0-32.83,8.53-32.83,27.26V163.42c0,18.73,17,27.26,32.77,27.26s32.83-8.53,32.83-27.26V56.26C357.69,37.54,340.7,29,324.91,29Zm-82.09-12.4C227,16.61,210,25.14,210,43.86V89.2H230.2c18,0,28.51,9.95,34.17,18.29L275.59,124V43.86C275.59,25.14,258.6,16.61,242.82,16.61Zm-82.1,5.53c-15.81,0-32.83,8.53-32.83,27.26V89.2h65.6V49.39c0-8.43-3.23-15.19-9.6-20.09C178,24.75,169.53,22.14,160.72,22.14Z"/></svg>