<svg id="图层_1" data-name="图层 1" xmlns="http://www.w3.org/2000/svg" viewBox="0 0 500 500"><defs><style>.cls-1{fill:#040000;}</style></defs><title>身份认证</title><path class="cls-1" d="M367.48,0H7.35A7.35,7.35,0,0,0,0,7.35V491a7.35,7.35,0,0,0,7.35,7.35H367.48a7.35,7.35,0,0,0,7.35-7.35V7.35A7.35,7.35,0,0,0,367.48,0Zm-7.35,483.66H14.7V14.7H360.13Z"/><path class="cls-1" d="M83.79,312.28H291a7.35,7.35,0,0,0,0-14.7H83.79a7.35,7.35,0,1,0,0,14.7Z"/><path class="cls-1" d="M83.79,370.07H291a7.35,7.35,0,0,0,0-14.7H83.79a7.35,7.35,0,1,0,0,14.7Z"/><path class="cls-1" d="M83.79,427.87H291a7.35,7.35,0,0,0,0-14.7H83.79a7.35,7.35,0,1,0,0,14.7Z"/><path class="cls-1" d="M492.42,80.85H432.16a7.35,7.35,0,0,0-7.35,7.35V435.1a7.35,7.35,0,0,0,1,3.65L457,496.3a7.35,7.35,0,0,0,6.38,3.7h.11a7.35,7.35,0,0,0,6.38-3.89l29.08-57.55a7.35,7.35,0,0,0,.86-3.46V88.2A7.35,7.35,0,0,0,492.42,80.85Zm-7.35,14.7V139H439.51V95.55Zm-22,381.9-23.61-44.3V153.68h45.57V433.26Z"/><path class="cls-1" d="M288.61,150.92a101.33,101.33,0,1,0-32.49,74.23,7.39,7.39,0,0,0,1.23-1.15A100.92,100.92,0,0,0,288.61,150.92Zm-187.7,0a86.5,86.5,0,1,1,155.43,52.2,71.91,71.91,0,0,0-41.81-46.28,42.78,42.78,0,1,0-52.67-.49,71.84,71.84,0,0,0-43.16,47.05A86.05,86.05,0,0,1,100.92,150.92Zm87.59.07a28.08,28.08,0,1,1,28.08-28.08A28.11,28.11,0,0,1,188.51,151ZM131,216.44a57,57,0,0,1,113.08-.23,86.33,86.33,0,0,1-113.08.23Z"/></svg>