<svg id="图层_1" data-name="图层 1" xmlns="http://www.w3.org/2000/svg" viewBox="0 0 500 500"><defs><style>.cls-1{fill:#231815;}</style></defs><title>教师</title><path class="cls-1" d="M457.27,45.4a7.28,7.28,0,0,0-5.67-1.81l-86,9.72a7.28,7.28,0,0,0-6.46,7.24v77a31.32,31.32,0,0,0-15.15-3.86c-16.39,0-29.72,12.35-29.72,27.53s13.33,27.53,29.72,27.53,29.72-12.35,29.72-27.53v-69l71.48-8.07v31A31.32,31.32,0,0,0,430,111.34c-16.39,0-29.72,12.35-29.72,27.53S413.6,166.4,430,166.4s29.72-12.35,29.72-27.53V50.56h0A7.28,7.28,0,0,0,457.27,45.4ZM343.94,174.2c-8.36,0-15.15-5.82-15.15-13s6.8-13,15.15-13,15.15,5.82,15.15,13S352.3,174.2,343.94,174.2Zm29.72-96.61V67.06L445.14,59V69.52ZM430,151.84c-8.36,0-15.15-5.82-15.15-13s6.8-13,15.15-13,15.15,5.82,15.15,13S438.34,151.84,430,151.84Z"/><path class="cls-1" d="M475.47,0h-270a24.27,24.27,0,0,0-24.24,24.24V196.16a16.62,16.62,0,0,0-1.3,1.39l-30,36.16c-5.94-9.48-17.81-15.93-31.27-15.93H95.29c-16.7,0-31,9.92-34.48,23.26a16.84,16.84,0,0,0-2.86,2.72l-54,65A17.86,17.86,0,0,0,.31,323.4a22,22,0,0,0,7.71,13,22,22,0,0,0,14,5.19A17.8,17.8,0,0,0,35.9,335.3L54.39,313l-1.7,20.26a36.11,36.11,0,0,0,7.89,25.81c-.07.57-.12,1.14-.14,1.72L55.9,476.28A22.86,22.86,0,0,0,77.8,500l.91,0a22.86,22.86,0,0,0,22.78-21.92l4.11-104.35h2.65l4.11,104.35A22.87,22.87,0,0,0,135.15,500l.91,0a22.86,22.86,0,0,0,21.9-23.7l-4.55-115.44c0-.58-.07-1.15-.14-1.72a36.11,36.11,0,0,0,7.9-25.81l-3.67-43.83c.11-.13.23-.25.34-.38l36.59-44a24.13,24.13,0,0,0,11,2.63h270a24.27,24.27,0,0,0,24.24-24.24V24.24A24.27,24.27,0,0,0,475.47,0ZM95.29,232.35h23.29c10.58,0,20.06,6.51,20.71,14.21l3.38,40.33V287l4,47.57a21.81,21.81,0,0,1-5.81,16.74,24.92,24.92,0,0,1-18.63,7.9H91.64A24.92,24.92,0,0,1,73,351.26a21.81,21.81,0,0,1-5.81-16.74l3.62-43.2h0l3.75-44.74C75.23,238.85,84.71,232.35,95.29,232.35ZM24.7,326c-1.23,1.48-4.65,1.44-7.38-.83a7.58,7.58,0,0,1-2.68-4.34,3.46,3.46,0,0,1,.51-2.76l43.17-52-1.81,21.6ZM84.29,483.22a8.25,8.25,0,0,1-13.83-6.37L74.66,370A40.84,40.84,0,0,0,91,373.71L86.94,477.5A8.19,8.19,0,0,1,84.29,483.22Zm56.93-.46a8.25,8.25,0,0,1-14.29-5.26l-4.09-103.79A40.84,40.84,0,0,0,139.2,370l4.21,106.81A8.19,8.19,0,0,1,141.21,482.76Zm14.55-214-1.48-17.64,36.8-44.31a3.47,3.47,0,0,1,2.63-1h0a7.59,7.59,0,0,1,4.72,1.84c2.73,2.27,3.4,5.62,2.17,7.1Zm329.38-45.36a9.69,9.69,0,0,1-9.68,9.68h-270a9.86,9.86,0,0,1-1-.06l7.45-9c5.09-6.13,5.12-14.95.78-22l59.19-70.73A7.28,7.28,0,1,0,260.64,122l-59.2,70.74a21.12,21.12,0,0,0-5.69-1.37V24.24a9.69,9.69,0,0,1,9.68-9.68h270a9.69,9.69,0,0,1,9.68,9.68Z"/><path class="cls-1" d="M106.93,207.91A39.89,39.89,0,1,0,67,168,39.94,39.94,0,0,0,106.93,207.91Zm0-65.22A25.33,25.33,0,1,1,81.6,168,25.36,25.36,0,0,1,106.93,142.69Z"/></svg>