<svg id="图层_1" data-name="图层 1" xmlns="http://www.w3.org/2000/svg" viewBox="0 0 500 500"><defs><style>.cls-1{fill:#040000;}</style></defs><title>教育经验</title><path class="cls-1" d="M389.81,234.62c0-75.64-61.54-137.17-137.17-137.17S115.46,159,115.46,234.62A136.78,136.78,0,0,0,162.7,338.2v17H136.22a7.28,7.28,0,0,0,0,14.56H162.7V420H136.22a7.28,7.28,0,0,0,0,14.56H162.7v58.17A7.28,7.28,0,0,0,170,500H332.6a7.28,7.28,0,0,0,7.28-7.28V434.55h29.17a7.28,7.28,0,0,0,0-14.56H339.88V369.77h29.17a7.28,7.28,0,1,0,0-14.56H339.88V340.44A136.35,136.35,0,0,0,389.81,234.62ZM325.31,485.44H177.26V434.55H325.31Zm0-65.45H177.26V369.77H325.31Zm-72.68-145.5a41.57,41.57,0,1,1,41.57-41.57A41.61,41.61,0,0,1,252.64,274.48Zm7.28,80.73V288.56a56.13,56.13,0,1,0-14.56,0v66.65H177.26V334.82a7.28,7.28,0,0,0-2.65-5.61,122.64,122.64,0,1,1,153.49,2,7.28,7.28,0,0,0-2.79,5.73v18.26Z"/><path class="cls-1" d="M120,83.56,98.2,61.8A7.28,7.28,0,0,0,87.9,72.1l21.76,21.76A7.28,7.28,0,1,0,120,83.56Z"/><path class="cls-1" d="M251.2,45.34a7.28,7.28,0,0,0,7.28-7.28V7.28a7.28,7.28,0,0,0-14.56,0V38.06A7.28,7.28,0,0,0,251.2,45.34Z"/><path class="cls-1" d="M412.1,64.21a7.28,7.28,0,0,0-10.3,0L380,86a7.28,7.28,0,0,0,10.3,10.3L412.1,74.5A7.28,7.28,0,0,0,412.1,64.21Z"/></svg>