<svg id="图层_1" data-name="图层 1" xmlns="http://www.w3.org/2000/svg" viewBox="0 0 500 500"><defs><style>.cls-1{fill:#040000;}</style></defs><title>团队</title><path class="cls-1" d="M500,386.64a112.53,112.53,0,0,0-210.12-56l-74.08-37a112.47,112.47,0,0,0,1.27-86.47l71.37-39.46a112.43,112.43,0,0,0,175,28.19,7.28,7.28,0,0,0,1.26-1.18,112.51,112.51,0,1,0-182.49-40.2L210.78,194A112.59,112.59,0,1,0,189,331.35a7.31,7.31,0,0,0,1.27-1.18,113.33,113.33,0,0,0,18.88-23.63l74.31,37.12A112.49,112.49,0,0,0,463.91,469.15a7.3,7.3,0,0,0,1.27-1.19A112.23,112.23,0,0,0,500,386.64ZM322.69,187.25A64.86,64.86,0,0,1,451.58,187a97.8,97.8,0,0,1-128.89.26Zm65.52-72.84a32.47,32.47,0,1,1,32.47-32.47A32.5,32.5,0,0,1,388.21,114.41Zm-1.22-99A97.94,97.94,0,0,1,463.9,174a79.66,79.66,0,0,0-48.5-53.75,47,47,0,1,0-55.12-.53,79.6,79.6,0,0,0-50,54.58A97.94,97.94,0,0,1,387,15.37ZM48.25,322.73a64.86,64.86,0,0,1,128.89-.26,97.8,97.8,0,0,1-128.89.26Zm65.52-72.84a32.47,32.47,0,1,1,32.47-32.47A32.5,32.5,0,0,1,113.77,249.9Zm75.69,59.61A79.66,79.66,0,0,0,141,255.75a47,47,0,1,0-55.12-.53,79.6,79.6,0,0,0-50,54.58A98,98,0,1,1,200.62,205.91a6.75,6.75,0,0,0,1.12,2.35A97.84,97.84,0,0,1,189.46,309.5Zm100,77.14a98,98,0,1,1,174.9,60.66,79.66,79.66,0,0,0-48.5-53.75,47,47,0,1,0-55.12-.53,79.6,79.6,0,0,0-50,54.58A97.51,97.51,0,0,1,289.46,386.64Zm99.22,1a32.47,32.47,0,1,1,32.47-32.47A32.5,32.5,0,0,1,388.68,387.69Zm-65.52,72.84A64.86,64.86,0,0,1,452,460.27a97.8,97.8,0,0,1-128.89.26Z"/></svg>