<?xml version="1.0" encoding="utf-8"?>
<!-- Generator: Adobe Illustrator 19.0.0, SVG Export Plug-In . SVG Version: 6.00 Build 0)  -->
<svg version="1.1" id="图层_1" xmlns="http://www.w3.org/2000/svg" xmlns:xlink="http://www.w3.org/1999/xlink" x="0px" y="0px"
	 viewBox="0 0 1000 1000" style="enable-background:new 0 0 1000 1000;" xml:space="preserve">
<style type="text/css">
	.st0{fill:url(#XMLID_2_);}
</style>
<linearGradient id="XMLID_2_" gradientUnits="userSpaceOnUse" x1="500" y1="834.8491" x2="500" y2="165.1509">
	<stop  offset="0" style="stop-color:#0395D9"/>
	<stop  offset="1" style="stop-color:#5BCAFF"/>
</linearGradient>
<path id="XMLID_636_" class="st0" d="M793.5,476.9l-83.7-23.1c-0.9-21-4.2-41.3-9.5-60.6l87.3-28.5V237.5h-26v108.4l-69.4,22.6
	c-11.7-30.3-28.6-57.3-49.4-79.5c11.9-13.6,18.4-30.8,18.4-49.1c0-41.2-33.5-74.8-74.8-74.8c-36.1,0-66.3,25.7-73.3,59.9
	c-4.4-0.3-8.8-0.5-13.2-0.5c-4.4,0-8.8,0.2-13.2,0.5c-6.9-34.1-37.1-59.9-73.3-59.9c-41.2,0-74.8,33.5-74.8,74.8
	c0,18.3,6.5,35.5,18.4,49.1c-20.8,22.2-37.7,49.2-49.4,79.5l-69.4-22.6V237.5h-26v127.3l87.3,28.5c-5.3,19.3-8.6,39.6-9.5,60.6
	l-83.7,23.1L163.6,604l24.6,8.3l38.5-114.1l63.6-17.5c2.1,40.3,12.9,78,30.3,110.6l-73.4,60.1v183.4h26V663.7l61-49.9
	c38.5,56.7,98.5,93.3,165.8,93.3c67.3,0,127.3-36.6,165.8-93.3l61,49.9v171.1h26V651.4l-73.4-60.1c17.4-32.6,28.1-70.3,30.3-110.6
	l63.6,17.5l38.5,114.1l24.6-8.3L793.5,476.9z M586.5,191.2c26.9,0,48.8,21.9,48.8,48.8c0,11.6-4,22.5-11.3,31.2
	c-24.8-20.9-53.6-35.6-84.9-42.4C544.1,207.2,563.4,191.2,586.5,191.2z M413.5,191.2c23,0,42.4,16.1,47.4,37.6
	c-31.3,6.8-60.2,21.6-84.9,42.4c-7.3-8.7-11.3-19.7-11.3-31.2C364.8,213,386.7,191.2,413.5,191.2z M500,681.1
	c-101.5,0-184-96.6-184-215.3c0-118.7,82.6-215.3,184-215.3c101.5,0,184,96.6,184,215.3C684,584.6,601.5,681.1,500,681.1z"/>
</svg>
