<svg id="图层_1" data-name="图层 1" xmlns="http://www.w3.org/2000/svg" viewBox="0 0 500 500"><defs><style>.cls-1{fill:#040000;}</style></defs><title>专业认证</title><path class="cls-1" d="M491.75,59.71H8.25A7.25,7.25,0,0,0,1,67V433a7.25,7.25,0,0,0,7.25,7.25H491.75A7.25,7.25,0,0,0,499,433V67A7.25,7.25,0,0,0,491.75,59.71Zm-7.25,366.08h-469V74.21h469Z"/><path class="cls-1" d="M74.7,127.07H425.29a7.25,7.25,0,1,0,0-14.5H74.7a7.25,7.25,0,1,0,0,14.5Z"/><path class="cls-1" d="M74.7,178.53H425.29a7.25,7.25,0,1,0,0-14.5H74.7a7.25,7.25,0,0,0,0,14.5Z"/><path class="cls-1" d="M313.24,292.67a64.6,64.6,0,1,0-126.49,0l-46.94,46.94a7.25,7.25,0,0,0,4,12.3l29.56,4.58L178,386.05a7.25,7.25,0,0,0,12.3,4l47.22-47.22a64.41,64.41,0,0,0,25,0l47.22,47.22a7.25,7.25,0,0,0,12.3-4l4.58-29.56,29.56-4.58a7.25,7.25,0,0,0,4-12.3Zm-123.12,77L186.91,349a7.25,7.25,0,0,0-6.05-6.06l-20.68-3.21L192,307.92a65,65,0,0,0,30.08,29.81Zm9.78-90.24a50.1,50.1,0,1,1,50.1,50.1A50.15,50.15,0,0,1,199.9,279.47ZM319.14,343a7.25,7.25,0,0,0-6.05,6.06l-3.21,20.68-32-32A65,65,0,0,0,308,307.92l31.84,31.84Z"/></svg>