<svg id="图层_1" data-name="图层 1" xmlns="http://www.w3.org/2000/svg" viewBox="0 0 500 500"><defs><style>.cls-1{fill:#040000;}</style></defs><title>成长</title><path class="cls-1" d="M275.08,247.76a115.77,115.77,0,0,0,27.25-19.94,83.62,83.62,0,0,0,42.81,12,89.7,89.7,0,0,0,34.48-7.18,113.9,113.9,0,0,0,34.2-22.13A7.29,7.29,0,0,0,412.16,199c-37.67-20.67-66.86-15.2-84.7-7q-1.93.89-3.74,1.84a86.13,86.13,0,0,0,2.64-9.47c26.83-3.24,48.58-17.45,63.17-41.34a113.89,113.89,0,0,0,14.61-38A7.29,7.29,0,0,0,396,96.72C353.4,102.2,333,123.8,323.44,141a83.39,83.39,0,0,0-10.55,36.23c-3.86,24.32-18.78,43.68-44.36,57.55A143.8,143.8,0,0,1,235,247.55c-7.3-19.16-11.47-43.69,2-63.85,25-37.27,33.47-73.86,35.76-86.16,26.55-7,46.33-24.35,57.37-50.45A113.91,113.91,0,0,0,339,7.33,7.29,7.29,0,0,0,329.77.28C288.42,12,271.45,36.33,264.5,54.71a84.73,84.73,0,0,0-5.26,35.77,7.3,7.3,0,0,0-.16.81,157.34,157.34,0,0,1-4,18,91.44,91.44,0,0,0-11.65-27.66A113.88,113.88,0,0,0,216,51.46,7.29,7.29,0,0,0,204.93,55c-14.27,40.53-4.13,68.44,6.89,84.71a85.93,85.93,0,0,0,21.68,22c-2.6,4.6-5.44,9.25-8.57,13.91a65.94,65.94,0,0,0-7.22,14.21c-9.81-12-27.83-27.52-58-33.41.75-26.58-9.83-49.94-30.84-67.9A113.91,113.91,0,0,0,93.65,68a7.29,7.29,0,0,0-9.52,6.71c-1.34,42.95,16.76,66.48,32.18,78.66a84.74,84.74,0,0,0,32.47,15.81,92.42,92.42,0,0,0-26.15,7.94,113.9,113.9,0,0,0-33.19,23.62,7.29,7.29,0,0,0,2.17,11.44c18.09,8.91,34.06,12.15,47.72,12.15a80.6,80.6,0,0,0,37.21-8.92,85.67,85.67,0,0,0,26-20.81,64.57,64.57,0,0,1,11.1,15.28c-1.47,26.37,10.59,52,18.92,66.35H116.9a7.29,7.29,0,0,0-7.29,7.29V324.3a7.29,7.29,0,0,0,7.29,7.29h13.18L165,444.68h-5.88a7.29,7.29,0,0,0-7,9.16l10.86,40.75a7.29,7.29,0,0,0,7,5.41H345.67a7.29,7.29,0,0,0,7-5.41l10.86-40.75a7.29,7.29,0,0,0-7-9.16h-2.07L389,331.58h9.77A7.29,7.29,0,0,0,406,324.3V283.55a7.29,7.29,0,0,0-7.29-7.29h-149A154.09,154.09,0,0,1,241,261.08,157.56,157.56,0,0,0,275.08,247.76Zm58.48-42.47c18.82-8.67,39.59-8.09,61.86,1.7a101.86,101.86,0,0,1-21.82,12.41c-20.45,8.36-40.21,7.87-58.86-1.41A71.29,71.29,0,0,1,333.56,205.29ZM387.17,113a101.89,101.89,0,0,1-10.33,22.87C365.23,154.71,349,166,328.39,169.42,331.17,154.26,342.35,122.9,387.17,113ZM323.42,17.7a101.91,101.91,0,0,1-6.85,24.14c-8.72,20.32-23.16,33.84-43,40.29C274.11,66.73,280.55,34.07,323.42,17.7ZM223.89,131.51c-11.62-17.16-14.42-37.76-8.37-61.33a101.94,101.94,0,0,1,15.54,19.13c11.78,18.94,14.6,38.65,8.42,58.71A71.3,71.3,0,0,1,223.89,131.51ZM98.82,86.05a101.89,101.89,0,0,1,20.95,13.82C136.5,114.33,145,132.18,145.19,153,130.66,147.87,101.48,131.87,98.82,86.05Zm71,116.43c-18.42,9.5-39.19,9.83-61.88,1a101.91,101.91,0,0,1,21.25-13.37c20.06-9.25,39.83-9.64,58.87-1.19A71.29,71.29,0,0,1,169.85,202.49ZM340.07,485.43H175.55l-7-26.17H347Zm-.84-40.75h-159l-34.89-113.1H373.72ZM391.44,317H124.19V290.84H391.44Z"/></svg>