<?xml version="1.0" encoding="utf-8"?>
<!-- Generator: Adobe Illustrator 19.2.1, SVG Export Plug-In . SVG Version: 6.00 Build 0)  -->
<svg version="1.1" id="图层_1" xmlns="http://www.w3.org/2000/svg" xmlns:xlink="http://www.w3.org/1999/xlink" x="0px" y="0px"
	 viewBox="0 0 300 300" style="enable-background:new 0 0 300 300;" xml:space="preserve">
<style type="text/css">
	.st0{fill:#FFA71C;}
	.st1{fill:#FFFFFF;}
	.st2{fill:#EFA430;}
	.st3{fill:#3B3B41;}
</style>
<title>logo</title>
<rect class="st0" width="300" height="300"/>
<path class="st1" d="M229.8,90.4c0.7,18.1-18.7,11.3-35.3,51.7c-13.8,33.6,5.9,108.2-56.2,101.1c-49.9-5.7-40.9-115.8-30.8-138.5
	c21.2-47.6,62-65.5,60.4-28.6c-0.5,12.5-29.2,20.8-31.9,40.6c-1.4,10,5.1,15.2,13.3,14.4c15.6-1.6,23.8-9.1,32-26.1
	C190.6,85.5,228.3,51.7,229.8,90.4z"/>
<path class="st2" d="M151.5,223.6c7-1.9,13.8-7.4,14.3-5.5s-4.2,7.3-11.3,9.2s-14.6,1.3-13.7-0.5
	C141.5,225.5,144.4,225.5,151.5,223.6z"/>
<path class="st3" d="M83.8,107.2c0,1.2-1,2.2-2.2,2.2c0,0-0.1,0-0.1,0c-1.1,0.1-2.1-0.7-2.2-1.8c0-0.1,0-0.1,0-0.2v-0.1
	c0.1-6.9,0.3-23.2,0.3-32.9c0-3.4,0-5.9-0.1-7c-0.1-2.6-0.8-3.4-3.5-3.4c-0.5,0-1,0-1.6,0.1h-0.2c-1.1,0.1-2.1-0.7-2.2-1.8
	c0-0.1,0-0.1,0-0.2c0-1.2,1-2.2,2.2-2.2c1.4-0.1,1.9-0.1,3.3-0.1c3.9,0,6.1,1.9,6.3,5.5c0.1,1.2,0.1,3.1,0.1,5.4
	c0,6.4-0.1,16.5-0.1,26.2C83.7,100.4,83.7,104,83.8,107.2L83.8,107.2z"/>
<path class="st3" d="M125.6,125.5c-2-0.1-6.8-0.1-11.6-0.1s-9.6,0-11.6,0.1h-0.1c-2.4,0-3.8-1.3-3.8-3c0.1-1.3,0.6-2.4,1.5-3.3
	c5-5.8,13-13,19.1-20.3c2.9-3.5,4.2-7,4.2-10c0-6-4.7-8.4-9.1-8.4c-4.4-0.2-8.4,2.6-9.8,6.8c-0.2,1-1.1,1.6-2.1,1.7
	c-1.2,0-2.1-0.9-2.1-2.1c0,0,0,0,0-0.1c0-2.1,4.1-10,14.3-10c8.4,0,13.4,5.6,13.4,11.9c0,3.6-1.5,7.7-5,12.1
	c-5.8,7.2-13.1,13-19.3,20.1c-0.1,0.1-0.1,0.2-0.1,0.3c0,0.3,0.4,0.5,0.9,0.5c6.6,0,16.1-0.3,21.3-0.3c1.7,0,2.5,1,2.5,2.1
	c0,1.2-1.1,2.2-2.3,2.1C125.8,125.5,125.8,125.5,125.6,125.5L125.6,125.5z"/>
<path class="st3" d="M76.8,164.8c-4.3,0-6.6-2.5-6.6-3.8c0-0.8,0.7-1.5,1.6-1.5c0.5,0,0.9,0.3,1.2,0.7c0.9,1.2,2.4,1.9,3.9,1.8
	c2.9,0,3.6-2,3.6-2.9c-0.1-1.3-0.8-2.4-2-3c-1.2-0.7-2.6-1.5-4-2.1c-2-0.8-3.3-2.7-3.4-4.8c0-2.6,2.1-5.1,5.8-5.1s5.8,1.8,5.8,3
	c0,0.9-0.7,1.5-1.5,1.6c-0.5,0-0.9-0.3-1.3-0.6c-0.8-0.8-1.9-1.3-3.1-1.2c-1.3-0.2-2.6,0.8-2.7,2.1c0,0,0,0.1,0,0.1
	c0.1,1,0.7,1.9,1.7,2.4c1.1,0.6,2.9,1.4,4.2,2.1c2.7,1.5,3.8,3.5,3.8,5.5C83.6,161.9,81.1,164.8,76.8,164.8z"/>
<path class="st3" d="M106.7,164.6c-1.2,0-2.4-0.9-2.9-2.8c-0.7-2.8-2.1-11.1-2.4-13.3c-0.1-0.4-0.1-0.5-0.2-0.5s-0.2,0.2-0.2,0.5
	c-0.3,2.4-1.6,10-2.5,13.3c-0.5,1.9-1.8,2.9-3.1,2.9c-1.6-0.1-2.8-1.3-3-2.8c-2.8-13.5-3.2-15.5-3.2-16c0-0.8,0.7-1.5,1.6-1.4
	c0,0,0,0,0.1,0c0.8-0.1,1.4,0.4,1.6,1.2c2.7,15.4,2.8,15.5,3.1,15.5c0.2,0,0.4-0.3,0.5-0.7c0.5-2.2,1.9-10.3,2.6-13.8
	c0.2-1.2,1.2-2.1,2.4-2.1c1.2,0,2.3,0.8,2.6,2c0.6,3,1.9,10.7,2.5,13.8c0.1,0.4,0.2,0.6,0.3,0.6c0.4,0,0.5,0,3.6-15.3
	c0.1-0.7,0.8-1.2,1.5-1.1c0.8-0.1,1.6,0.5,1.7,1.4c0,0.5-1.4,6.9-3.7,16.1C109.4,163.4,108.2,164.5,106.7,164.6z"/>
<path class="st3" d="M123.6,163.1c-0.1,0.9-0.9,1.5-1.8,1.4c-0.7-0.1-1.3-0.7-1.4-1.4l0,0c0.1-3.2,0.1-6.8,0.1-10.2
	c0-2.5-0.1-5-0.1-7.1c-0.1-1.1,1.2-1.4,1.6-1.4c0.8-0.1,1.5,0.5,1.6,1.2c0,0,0,0,0,0.1v0.1c-0.1,2.2-0.1,4.7-0.1,7.3
	C123.5,156.4,123.5,159.9,123.6,163.1z"/>
<path class="st3" d="M132.3,163.3c0.1-2.8,0.1-6,0.1-9c0-2.7,0-5.2-0.1-7.2V147c0-1.9,1-2.6,2.2-2.6c1.1,0,2,0.6,2.6,1.4
	c1.7,2.7,6.1,11,8.2,14c0.2,0.2,0.3,0.4,0.4,0.4s0.2-0.1,0.2-1.1c0-2.5-0.1-10.8-0.2-13.3c0.1-0.9,0.8-1.5,1.6-1.5
	c0.8,0,1.4,0.6,1.4,1.4v0.1c-0.1,1.9-0.1,4.4-0.1,7.1c0,3.4,0,6.9,0.1,9.2v0.1c0.1,1.3-1,2.5-2.3,2.5c0,0-0.1,0-0.1,0
	c-0.9,0-1.8-0.5-2.3-1.3c-1.9-3-6.9-12.1-8.3-14.5c-0.1-0.2-0.3-0.5-0.4-0.5s-0.2,0.3-0.2,1.5c0,2.8,0.1,10.6,0.2,13.5v0.1
	c0,0.9-0.8,1.3-1.5,1.3c-0.8,0.1-1.4-0.4-1.5-1.2C132.3,163.4,132.3,163.3,132.3,163.3L132.3,163.3z"/>
<path class="st3" d="M171.1,156.8c-0.3,0-1.6,0-3.1,0.1h0c-0.8,0-1.4-0.7-1.3-1.5c0,0,0,0,0,0c0-1.4,1.1-1.4,2-1.4
	c1.3,0,2.8,0.1,3.7,0.1c2.3,0,3.1,1.2,3.1,2.8c0,3-2.7,8-9.1,8c-5.4,0.1-9.9-4.2-10-9.6c0-0.2,0-0.4,0-0.5c0-5.4,3.8-10.6,10.3-10.6
	c4.2,0,7.1,2.4,7.1,3.9c0,0.9-0.7,1.6-1.6,1.6c-0.5,0-1-0.3-1.4-0.7c-1.1-1.3-2.7-1.9-4.4-1.9c-4.7,0-6.9,4.1-6.9,7.5
	s2.3,7.2,6.9,7.2c4.4,0,5.6-3.4,5.6-4.2C172,157,171.6,156.8,171.1,156.8L171.1,156.8z"/>
<path class="st3" d="M74.1,188.9h-1.8l0,0c-0.6,0.1-1.1-0.4-1.2-1c-0.1-0.6,0.4-1.1,1-1.2c0.1,0,0.1,0,0.2,0l0,0h1.8v-4H72
	c-0.6,0-1.1-0.5-1.1-1.1c0-0.6,0.5-1.1,1.1-1.1c0,0,0,0,0,0h6.3c0.6,0,1.1,0.5,1.1,1.1c0,0.6-0.5,1.1-1.1,1.1h-1.9v4h1.4l0,0
	c0.6,0.1,1,0.6,1,1.2c-0.1,0.5-0.5,0.9-1,1l0,0h-1.4v4.3c0.7-0.3,1.3-0.6,1.8-0.9c0.2-0.1,0.4-0.2,0.6-0.2c0.6,0,1,0.4,1,1
	c0,0.5-0.3,0.9-0.7,1.1c-0.9,0.5-6.2,3-7.2,3c-0.7,0-1.2-0.5-1.2-1.2c0,0,0,0,0,0c0-0.5,0.4-1,0.9-1.1c0.9-0.2,1.8-0.6,2.6-0.9
	V188.9z M75.2,200.2c0-0.6,0.4-1,0.9-1.2c4.2-1.2,6.2-4.7,6.4-8.6c0-0.7,0.5-1.2,1.1-1.3c0,0,0.1,0,0.1,0c0.7,0,1.3,0.5,1.4,1.2
	c0,0,0,0,0,0v0.1c-0.6,8.3-7,11-8.5,11c-0.7,0.1-1.3-0.5-1.4-1.2C75.2,200.3,75.2,200.3,75.2,200.2z M91.5,196.4c0-0.6,0.4-1,1-1
	c0,0,0.1,0,0.1,0c0.7,0,1.3,0.5,1.3,1.1c0,0,0,0.1,0,0.1c0,3.2-0.9,4.4-4.3,4.4c-2.8,0-3.4-1.2-3.4-3c0-1,0.1-7.6,0.1-9.3h-6.1
	c-0.6,0-1.2-0.5-1.2-1.2c0-0.6,0.5-1.1,1.2-1.1h12.2c0.6,0,1.2,0.5,1.2,1.1c0,0.6-0.5,1.2-1.2,1.2h-3.6c0,1.6-0.1,7.1-0.1,8.6
	c0,0.8,0,1.3,1.1,1.3c1.4,0,1.8-0.1,1.8-2V196.4L91.5,196.4z M81.2,182.6c-0.6,0-1.2-0.4-1.2-1.1c0,0,0-0.1,0-0.1
	c0-0.6,0.5-1.2,1.1-1.2c0,0,0.1,0,0.1,0h9.2c0.6,0,1.2,0.4,1.2,1.1c0,0,0,0.1,0,0.1c0,0.6-0.5,1.2-1.1,1.2c0,0-0.1,0-0.1,0H81.2z"/>
<path class="st3" d="M108.8,180.7h3.2c0.9,0,2.6,0,2.6,1.4c0,0.3,0,1-1.9,2.7c1.2,0,2.4,0,3.7,0.1c1.5-0.1,2.8,1,3,2.4
	c0,0.5,0.1,1.1,0.1,1.6c0,0.5,0,1.1-0.1,1.6c-0.2,1.4-1.5,2.4-2.9,2.3c-1.7,0.1-3.5,0.1-5.3,0.1c-1.2,4-4.1,7.1-10,8.6
	c-0.2,0-0.3,0.1-0.5,0.1c-0.7,0-1.3-0.5-1.3-1.2c0,0,0,0,0,0c0-0.6,0.5-1.1,1.1-1.2c4.7-1.2,7.1-3.5,8.2-6.3l-3.1-0.1
	c-1.9-0.1-2.9-1-3-2.3c0-0.4,0-1,0-1.5s0-1.1,0-1.5c-1,0.7-1.3,0.9-1.7,0.9c-0.7,0-1.2-0.5-1.3-1.2c0-0.4,0.3-0.8,0.6-1
	c2.6-1.8,4.9-4.1,6.5-6.8c0.2-0.4,0.7-0.7,1.2-0.7c0.7,0,1.3,0.5,1.3,1.1c0,0.2-0.1,0.4-0.2,0.6L108.8,180.7z M106.3,186.9
	c-0.9,0-1.3,0.5-1.3,1c0,0.3,0,0.7,0,1.1c0,1.8,0,1.8,4.3,1.8c0.1-0.6,0.2-1.2,0.2-1.9c0-0.1,0-0.4,0-2
	C108.3,186.9,107.2,186.9,106.3,186.9L106.3,186.9z M105.6,184.8c1.5,0,2.9-0.1,4.4-0.1c0.6-0.5,1.6-1.5,1.6-1.9
	c0-0.2-0.1-0.2-0.3-0.2l-3.8,0.1c-0.6,0.8-1.3,1.5-2,2.2L105.6,184.8z M113.4,194.6c0,1.1-0.1,1.9-0.1,2.9c0,1.4,0.1,1.6,2.8,1.6
	c1.8,0,3.5,0,3.5-2.5c0-0.6,0.5-1.2,1.1-1.2c0,0,0.1,0,0.1,0c0.7,0,1.4,0.5,1.4,1.3c0,0,0,0.1,0,0.1c0,4.3-3.1,4.6-6.4,4.6
	c-4.4,0-4.9-0.9-4.9-3.7c0-1.1,0-2.3,0.1-3.1c0.1-0.6,0.6-1.1,1.2-1c0,0,0,0,0,0C112.8,193.5,113.3,193.9,113.4,194.6
	C113.4,194.5,113.4,194.5,113.4,194.6L113.4,194.6z M111.7,190.8c1.4,0,2.8,0,4.1-0.1s1.3-0.6,1.3-1.9c0-0.3,0-0.7,0-0.9
	c-0.1-1-0.6-1-5.1-1C112,188.2,111.9,189.5,111.7,190.8L111.7,190.8z M116.8,197c-0.6-0.6-1.4-1.1-2.2-1.5c-0.4-0.2-0.6-0.5-0.6-0.9
	c0-0.6,0.4-1,1-1c0,0,0,0,0.1,0c1.2,0.3,2.3,0.9,3.2,1.6c0.3,0.2,0.4,0.6,0.4,0.9c0,0.6-0.5,1.1-1.1,1.2
	C117.3,197.3,117,197.2,116.8,197L116.8,197z"/>
</svg>
