<svg id="图层_1" data-name="图层 1" xmlns="http://www.w3.org/2000/svg" viewBox="0 0 500 500"><defs><style>.cls-1{fill:#040000;}</style></defs><title>地铁直达</title><path class="cls-1" d="M404.9,0H95.1A54.76,54.76,0,0,0,40.4,54.7V382.26A54.76,54.76,0,0,0,95.1,437h24.62l-50.61,50.6a7.28,7.28,0,0,0,10.3,10.3l60.9-60.9H359.67l60.9,60.9a7.28,7.28,0,0,0,10.3-10.3L380.27,437H404.9a54.76,54.76,0,0,0,54.7-54.7V54.7A54.76,54.76,0,0,0,404.9,0ZM445,382.26A40.18,40.18,0,0,1,404.9,422.4H95.1A40.18,40.18,0,0,1,55,382.26V54.7A40.18,40.18,0,0,1,95.1,14.57H404.9A40.18,40.18,0,0,1,445,54.7Z"/><path class="cls-1" d="M380,47H120A31.46,31.46,0,0,0,88.61,78.46V181.13A31.46,31.46,0,0,0,120,212.56H380a31.46,31.46,0,0,0,31.43-31.43V78.46A31.46,31.46,0,0,0,380,47Zm16.86,134.1A16.88,16.88,0,0,1,380,198H120a16.88,16.88,0,0,1-16.86-16.86V78.46A16.88,16.88,0,0,1,120,61.59H380a16.88,16.88,0,0,1,16.86,16.86Z"/><path class="cls-1" d="M132.44,280.29a43.82,43.82,0,1,0,43.82,43.82A43.87,43.87,0,0,0,132.44,280.29Zm0,73.08a29.26,29.26,0,1,1,29.26-29.26A29.29,29.29,0,0,1,132.44,353.37Z"/><path class="cls-1" d="M367.56,280.29a43.82,43.82,0,1,0,43.82,43.82A43.87,43.87,0,0,0,367.56,280.29Zm0,73.08a29.26,29.26,0,1,1,29.26-29.26A29.29,29.29,0,0,1,367.56,353.37Z"/></svg>