<svg id="图层_1" data-name="图层 1" xmlns="http://www.w3.org/2000/svg" viewBox="0 0 500 500"><defs><style>.cls-1{fill:#040000;}</style></defs><title>静心阅读</title><path class="cls-1" d="M181.8,273.62a54.13,54.13,0,0,0,53.44-62.91c5.13-3.72,16.35-9.29,29.5.13a54.2,54.2,0,1,0,4.5-14.49c-15.72-9.19-29.82-4.77-38.43.09a54.15,54.15,0,1,0-49,77.18ZM318.2,179.88a39.58,39.58,0,1,1-39.58,39.58A39.62,39.62,0,0,1,318.2,179.88Zm-136.41,0a39.58,39.58,0,1,1-39.58,39.58A39.62,39.62,0,0,1,181.8,179.88Z"/><path class="cls-1" d="M463.65,91.57h-8.29a42.44,42.44,0,0,0-41.42-33.43H285.09A42.37,42.37,0,0,0,250,76.78a42.36,42.36,0,0,0-35.09-18.64H86.06A42.44,42.44,0,0,0,44.64,91.57H36.35A36.23,36.23,0,0,0,.16,127.75V384.52A36.23,36.23,0,0,0,36.35,420.7h174c10.28,13.5,24.54,21.16,39.65,21.16s29.37-7.66,39.65-21.16h174a36.23,36.23,0,0,0,36.18-36.18V127.75A36.23,36.23,0,0,0,463.65,91.57ZM58.26,100.52a27.83,27.83,0,0,1,27.8-27.8H214.91a27.83,27.83,0,0,1,27.8,27.8v40.29a7.29,7.29,0,0,0,14.58,0V100.52a27.83,27.83,0,0,1,27.8-27.8H413.94a27.83,27.83,0,0,1,27.8,27.8V337.57a27.83,27.83,0,0,1-27.8,27.8H285.09a44.38,44.38,0,0,0-27.8,9.26V282.79a7.29,7.29,0,1,0-14.58,0v91.83a44.37,44.37,0,0,0-27.8-9.26H86.06a27.83,27.83,0,0,1-27.8-27.8Zm427,284a21.63,21.63,0,0,1-21.6,21.6H285.9a7.29,7.29,0,0,0-6.06,3.23c-7.63,11.39-18.51,17.92-29.84,17.92s-22.21-6.53-29.84-17.92a7.29,7.29,0,0,0-6.06-3.23H36.35a21.63,21.63,0,0,1-21.6-21.6V127.75a21.63,21.63,0,0,1,21.6-21.6h7.33V337.57a42.42,42.42,0,0,0,42.38,42.38H214.91c16.11,0,27.8,10.54,27.8,25.06a7.29,7.29,0,1,0,14.58,0c0-14.52,11.69-25.06,27.8-25.06H413.94a42.42,42.42,0,0,0,42.38-42.38V106.15h7.33a21.63,21.63,0,0,1,21.6,21.6Z"/></svg>