<svg id="图层_1" data-name="图层 1" xmlns="http://www.w3.org/2000/svg" viewBox="0 0 500 500"><defs><style>.cls-1{fill:#040000;}</style></defs><title>暖心热饮</title><path class="cls-1" d="M480.14,485.44H269.83A196.09,196.09,0,0,0,376.5,376.86a63.51,63.51,0,1,0,13.15-63.54c.08-2.3.14-4.6.14-6.92V228.7a7.28,7.28,0,0,0-7.28-7.28H9.88A7.28,7.28,0,0,0,2.6,228.7v77.7A192.22,192.22,0,0,0,59.46,443.14a194.23,194.23,0,0,0,63.1,42.3H7.28a7.28,7.28,0,0,0,0,14.56H480.14a7.28,7.28,0,0,0,0-14.56ZM436.48,307.21a48.91,48.91,0,1,1-48.91,48.91A49,49,0,0,1,436.48,307.21ZM69.76,432.84a177.75,177.75,0,0,1-52.6-126.44V236H375.23v70.42A178.81,178.81,0,0,1,69.76,432.84Z"/><path class="cls-1" d="M62,168.46a7.33,7.33,0,0,0,6.82,4.69,7.28,7.28,0,0,0,6.79-9.87A36.72,36.72,0,0,1,74,153.64a63.4,63.4,0,0,1,4.18-25.22c10-26.94-2.79-46.44-3.34-47.26a7.28,7.28,0,1,0-12.12,8.07c.38.58,9.1,14.42,1.8,34.13C54.92,149.4,61.75,167.7,62,168.46Z"/><path class="cls-1" d="M184.17,168.46a7.28,7.28,0,0,0,13.6-5.2c-.08-.22-8-22.24,3.81-54.15,14.18-38.29-3.8-65.76-4.57-66.92a7.28,7.28,0,1,0-12.09,8.11c.15.22,14.63,22.36,3,53.74C174.07,141.44,183.75,167.38,184.17,168.46Z"/><path class="cls-1" d="M306.29,168.46a7.28,7.28,0,0,0,13.59-5.24c-.11-.29-11.1-29.79,5.06-73.43,18.38-49.64-4.81-85.09-5.8-86.57A7.28,7.28,0,1,0,307,11.34c.2.3,20.07,30.67,4.24,73.4C293.22,133.48,305.74,167.06,306.29,168.46Z"/></svg>