<svg id="图层_1" data-name="图层 1" xmlns="http://www.w3.org/2000/svg" viewBox="0 0 500 500"><defs><style>.cls-1{fill:#040000;}</style></defs><title>上网充电</title><path class="cls-1" d="M437.37,110.75a7.27,7.27,0,0,0-7.27-7.12H359.89V7.52a7.27,7.27,0,0,0-14.55,0v96.1H154.66V7.52a7.27,7.27,0,0,0-14.55,0v96.1H69.9a7.27,7.27,0,0,0-7.27,7.12c0,1.32-.05,2.63-.05,4v53.21A188,188,0,0,0,242.73,355.18v137.3a7.27,7.27,0,1,0,14.55,0V355.18A188,188,0,0,0,437.42,167.91V114.7C437.42,113.38,437.4,112.06,437.37,110.75Zm-14.5,57.16a172.87,172.87,0,0,1-345.75,0V118.17H422.87Z"/><path class="cls-1" d="M250,158.57a57.24,57.24,0,1,0,57.24,57.24A57.31,57.31,0,0,0,250,158.57Zm0,99.93a42.69,42.69,0,1,1,42.69-42.69A42.74,42.74,0,0,1,250,258.51Z"/></svg>