<svg id="图形" xmlns="http://www.w3.org/2000/svg" viewBox="0 0 100 100"><defs><style>.cls-1{fill:#fff;}</style></defs><title>iconfont-playcircle-2</title><path class="cls-1" d="M50,0A48.9,48.9,0,0,1,75.1,6.71a49.8,49.8,0,0,1,18.2,18.2A48.9,48.9,0,0,1,100,50a48.9,48.9,0,0,1-6.71,25.1,49.8,49.8,0,0,1-18.2,18.2A48.9,48.9,0,0,1,50,100a48.9,48.9,0,0,1-25.1-6.71A49.8,49.8,0,0,1,6.71,75.1,48.9,48.9,0,0,1,0,50,48.9,48.9,0,0,1,6.71,24.9,49.8,49.8,0,0,1,24.9,6.71,48.9,48.9,0,0,1,50,0h0ZM75,53.57a4.12,4.12,0,0,0,0-7.17L39.59,25.58a3.91,3.91,0,0,0-4.17-.07,4,4,0,0,0-2.08,3.65V70.82a4,4,0,0,0,2.08,3.65A4.65,4.65,0,0,0,37.5,75a4,4,0,0,0,2.08-.58Z"/></svg>