<svg id="图层_1" data-name="图层 1" xmlns="http://www.w3.org/2000/svg" viewBox="0 0 500 500"><defs><style>.cls-1{fill:#040000;}</style></defs><title>专属乐团</title><path class="cls-1" d="M390.49,190H383V50a7.28,7.28,0,0,0-7.28-7.28H351.93V29a7.28,7.28,0,0,0-7.59-7.28c-2.7.11-59.07,2.57-87.05,7.88V7.28a7.28,7.28,0,1,0-14.57,0V29.7c-28.5-5.28-84.38-7.86-87-8A7.28,7.28,0,0,0,148.07,29V42.67H124.24A7.28,7.28,0,0,0,117,50V190h-7.45a7.28,7.28,0,1,0,0,14.57H242.72V404.28l-124.41,81a7.28,7.28,0,1,0,7.95,12.21l116.46-75.85v71.06a7.28,7.28,0,1,0,14.57,0V421.66l116.46,75.85a7.28,7.28,0,0,0,7.95-12.21l-124.41-81V204.61H390.49a7.28,7.28,0,1,0,0-14.57ZM337.36,36.63V170.09c-17.11.9-58.47,3.41-80.08,7.47V44.44C275.51,40.48,315.51,37.76,337.36,36.63Zm-174.72,0c17.34.95,59.81,3.61,80.08,7.87v133c-21.73-4.1-63-6.59-80.08-7.48ZM131.53,57.24h16.55V177a7.28,7.28,0,0,0,7,7.28c15.39.7,50.23,2.79,73.26,5.75H131.53ZM271.71,190c22.94-2.93,57.81-5,73.28-5.75a7.28,7.28,0,0,0,6.95-7.28V57.24h16.55V190Z"/></svg>