<svg id="图层_1" data-name="图层 1" xmlns="http://www.w3.org/2000/svg" viewBox="0 0 500 500"><defs><style>.cls-1{fill:#040000;}</style></defs><title>不同风格</title><path class="cls-1" d="M118.45,263.11A118.45,118.45,0,1,0,236.9,381.56,118.58,118.58,0,0,0,118.45,263.11Zm0,222.33A103.88,103.88,0,1,1,222.33,381.56,104,104,0,0,1,118.45,485.44Z"/><path class="cls-1" d="M118.45,0A118.45,118.45,0,1,0,236.9,118.45,118.58,118.58,0,0,0,118.45,0Zm0,222.33A103.88,103.88,0,1,1,222.33,118.45,104,104,0,0,1,118.45,222.33Z"/><path class="cls-1" d="M265.33,122.67V357.29H500V122.67ZM485.39,342.73H279.89V137.23h205.5Z"/><path class="cls-1" d="M435.32,187.31H330V292.65H435.32Zm-14.56,90.78H344.53V201.87h76.22Z"/></svg>