<svg id="图层_1" data-name="图层 1" xmlns="http://www.w3.org/2000/svg" viewBox="0 0 500 500"><defs><style>.cls-1{fill:#040000;}</style></defs><title>寓教于乐</title><path class="cls-1" d="M479.84,258.38H20.16a7.28,7.28,0,0,0-.35,14.54V485.25H7.32a7.28,7.28,0,1,0,0,14.56H467A7.28,7.28,0,0,0,470.29,486V272.94h9.55a7.28,7.28,0,0,0,0-14.56ZM34.37,390.74,71,427.36a7.28,7.28,0,0,0,10.3,0l36.91-36.91,36.91,36.91a7.28,7.28,0,0,0,10.3,0l36.78-36.78L239,427.36a7.28,7.28,0,0,0,10.3,0l37-37,37,37a7.28,7.28,0,0,0,10.3,0l36.91-36.91,36.91,36.91a7.28,7.28,0,0,0,10.3,0l38.05-38.05v95.94H34.37Zm9.4-11.19,32.37-32.37,32.37,32.37L76.14,411.92Zm84.12,0,32.37-32.37,32.37,32.37-32.37,32.37Zm83.87,0,32.37-32.37,32.37,32.37-32.37,32.37Zm84.28,0,32.37-32.37,32.37,32.37-32.37,32.37Zm84.12,0,32.37-32.37,32.37,32.37-32.37,32.37Zm75.58-9.76-38.05-38.05a7.28,7.28,0,0,0-10.3,0l-36.91,36.91-36.91-36.91a7.28,7.28,0,0,0-10.3,0l-37,37-37-37a7.28,7.28,0,0,0-10.3,0L202.2,368.51l-36.78-36.78a7.28,7.28,0,0,0-10.3,0L118.2,368.64,81.29,331.73a7.28,7.28,0,0,0-10.3,0L34.37,368.35V272.94H455.73Z"/><path class="cls-1" d="M143.7,177c-.07.92-.11,1.84-.11,2.75a36,36,0,1,0,36-36q-1.37,0-2.75.11L40,7A23.42,23.42,0,0,0,6.88,40.15ZM17.18,17.33a8.86,8.86,0,0,1,12.52,0L169.06,156.69a7.28,7.28,0,0,0,6.5,2,21.42,21.42,0,1,1-17,17,7.28,7.28,0,0,0-2-6.5L17.18,29.86A8.87,8.87,0,0,1,17.18,17.33Z"/><path class="cls-1" d="M493.12,7A23.44,23.44,0,0,0,460,7L323.18,143.86q-1.38-.11-2.75-.11a36,36,0,1,0,36,36c0-.91,0-1.83-.11-2.75L493.12,40.15A23.44,23.44,0,0,0,493.12,7Zm-10.3,22.82L343.47,169.21a7.28,7.28,0,0,0-2,6.5,21.43,21.43,0,1,1-17-17,7.28,7.28,0,0,0,6.5-2L470.3,17.33a8.86,8.86,0,0,1,12.52,12.53Z"/></svg>