<svg id="图层_1" data-name="图层 1" xmlns="http://www.w3.org/2000/svg" viewBox="0 0 500 500"><defs><style>.cls-1{fill:#040000;}</style></defs><title>综合素质</title><path class="cls-1" d="M396.93,217.25a7.28,7.28,0,0,0,3.88-7.42c-.3-2.28-.54-5.32-.82-8.84-2.17-27.41-6.69-84.45-63.21-110.53C281,64.69,265.64,6.1,265.49,5.52a7.28,7.28,0,0,0-14.35,1.76V333.49H182.45a83.25,83.25,0,1,0,83.26,83.25v-272c53.61,7.36,122.21,70.72,122.93,71.39A7.28,7.28,0,0,0,396.93,217.25ZM251.14,416.75a68.69,68.69,0,1,1-68.69-68.69h68.69ZM265.71,130V42.84c11.69,20.5,31.84,45.54,65,60.84,43.83,20.23,51.43,62.17,54,89.73C360.69,173.41,309.74,135.21,265.71,130Z"/><path class="cls-1" d="M108.77,250.44l36-36c.6-.55,1.19-1.11,1.78-1.7l42.91-42.91a60.72,60.72,0,0,0-85.86-85.89,60.72,60.72,0,0,0-85.86,85.89l42.91,42.91c.58.58,1.18,1.14,1.78,1.7l36,36a7.28,7.28,0,0,0,10.3,0ZM72.64,204l-.23-.22c-.49-.45-1-.9-1.44-1.37L28.06,159.51A46.16,46.16,0,0,1,93.33,94.23l5.14,5.14a7.28,7.28,0,0,0,10.3,0l5.14-5.14a46.16,46.16,0,0,1,65.28,65.28l-42.91,42.91c-.47.47-1,.93-1.45,1.38l-.23.22-31,31Z"/><path class="cls-1" d="M483.92,303.21a55.38,55.38,0,0,0-77.57-.53,55.23,55.23,0,0,0-77.57,78.64l38.5,38.5c.53.53,1.06,1,1.61,1.53l32.31,32.31a7.28,7.28,0,0,0,10.3,0l32.31-32.31c.54-.5,1.08-1,1.61-1.53l38.5-38.5a55.37,55.37,0,0,0,0-78.11ZM473.62,371l-38.5,38.5c-.42.42-.84.81-1.27,1.21l-.23.22-27.27,27.27-27.27-27.27-.23-.22c-.43-.39-.86-.79-1.27-1.21L339.08,371a40.67,40.67,0,0,1,57.51-57.52l4.61,4.61a7.28,7.28,0,0,0,10.3,0l4.61-4.61A40.67,40.67,0,0,1,473.62,371Z"/></svg>