<?xml version="1.0" encoding="utf-8"?>
<!-- Generator: Adobe Illustrator 19.0.0, SVG Export Plug-In . SVG Version: 6.00 Build 0)  -->
<svg version="1.1" id="图层_1" xmlns="http://www.w3.org/2000/svg" xmlns:xlink="http://www.w3.org/1999/xlink" x="0px" y="0px"
	 viewBox="0 0 500 500" style="enable-background:new 0 0 500 500;" xml:space="preserve">
<g id="XMLID_283_">
	<path id="XMLID_287_" d="M212.3,318.7c-2.9-2.8-7.5-2.8-10.3,0.1L125.8,396l-7.9-7.8l81.5-82.6c2.8-2.9,2.8-7.5-0.1-10.3
		c-2.9-2.8-7.5-2.8-10.3,0.1L107.6,378l-7.3-7.2l76.2-77.2c2.8-2.9,2.8-7.5-0.1-10.3c-2.9-2.8-7.5-2.8-10.3,0.1l-76.2,77.2l-8.5-8.4
		c-2.9-2.8-7.5-2.8-10.3,0.1c-2.8,2.9-2.8,7.5,0.1,10.3l8.5,8.4l-8.4,8.5c-2.8,2.9-2.8,7.5,0.1,10.3c1.4,1.4,3.3,2.1,5.1,2.1
		c1.9,0,3.8-0.7,5.2-2.2l8.4-8.5l7.3,7.2l-7.5,7.6c-2.8,2.9-2.8,7.5,0.1,10.3c1.4,1.4,3.3,2.1,5.1,2.1c1.9,0,3.8-0.7,5.2-2.2
		l7.5-7.6l7.9,7.8l-8.4,8.5c-2.8,2.9-2.8,7.5,0.1,10.3c1.4,1.4,3.3,2.1,5.1,2.1c1.9,0,3.8-0.7,5.2-2.2l8.4-8.5l8.7,8.6
		c1.4,1.4,3.3,2.1,5.1,2.1c1.9,0,3.8-0.7,5.2-2.2c2.8-2.9,2.8-7.5-0.1-10.3l-8.7-8.6l76.2-77.2C215.2,326.2,215.2,321.6,212.3,318.7
		z"/>
	<path id="XMLID_396_" d="M499.9,91.6c0-1.9-0.8-3.8-2.2-5.1l-3.8-3.7c3.3-3.4,5.1-7.9,5-12.6c0-4.8-1.9-9.3-5.4-12.7L440.7,5.2
		c-7.1-7-18.5-6.9-25.5,0.1l-3.3-3.3c-1.4-1.4-3.2-2.1-5.2-2.1l-14.2,0.1c-1.9,0-3.8,0.8-5.1,2.2l-10,10.1c-1.4,1.4-2.1,3.2-2.1,5.2
		l0.1,14.2c0,0.6,0.1,1.1,0.2,1.7c-0.6-0.2-1.3-0.3-2-0.3c0,0,0,0,0,0l-14.2,0.1c-1.9,0-3.8,0.8-5.1,2.2l-10,10.1
		c-1.4,1.4-2.1,3.2-2.1,5.2l0.1,14.2c0,1.9,0.8,3.8,2.2,5.1l5.7,5.6c-2.9,8.5-1.7,18,3,25.6l-20.9,21.2c0,0,0,0,0,0c0,0,0,0,0,0
		L287,168.2c-15.1-9.6-35.4-19.6-54.4-19.6c-0.2,0-0.3,0-0.5,0c-36.3,0-43,5.8-71.7,45.1l-0.5,0.7l-0.3,0.8
		c-10.3,24.2-26.4,29.3-38.1,29.3c0,0,0,0-0.1,0c-7.7,0-33.4,2.6-59.7,14.9c-32.6,15.2-53.1,39.4-59.3,70C-3,336,0.1,359,11.7,379.7
		c10,17.7,24.6,30.9,37.5,42.6c5.3,4.8,10.4,9.4,14.7,13.9l5.2,5.1l0.2,0.2c4.1,3.8,8.2,8.4,12.7,13.3c17.7,19.6,41,45.3,83.7,45.3
		c7.8,0,16.3-0.9,25.6-2.8c30.6-6.4,54.7-27,69.7-59.6c12.1-26.3,14.6-52.1,14.6-59.8c-0.1-11.7,4.9-27.8,29.1-38.3l0.8-0.3l0.7-0.5
		c39.4-29.1,45-35.7,44.8-72.4c-0.1-18.3-9.6-37.9-18.7-52.5l16.5-16.7c0,0,0,0,0,0c0,0,0,0,0,0l29.1-29.5c0,0,0,0,0,0s0,0,0,0
		l20.9-21.2c7.5,4.6,16.5,5.7,24.9,2.9l6.4,6.3c1.4,1.3,3.2,2.1,5.1,2.1c0,0,0,0,0,0l14.2-0.1c1.9,0,3.8-0.8,5.1-2.2l10-10.1
		c1.4-1.4,2.1-3.2,2.1-5.2l-0.1-14.2c0-1-0.2-2-0.6-2.9c0.8,0.3,1.7,0.5,2.7,0.5c0,0,0,0,0,0l14.2-0.1c1.9,0,3.8-0.8,5.1-2.2
		l10-10.1c1.4-1.4,2.1-3.2,2.1-5.2L499.9,91.6z M395.6,14.6l8.2-0.1l5.8,5.8l0.1,8.2l-5.8,5.8l-8.2,0.1l-5.8-5.8l-0.1-8.2
		L395.6,14.6z M362.4,47.8l8.2-0.1l5.8,5.8l0.1,8.2l-5.8,5.8l-8.2,0.1l-5.8-5.8l-0.1-8.2L362.4,47.8z M343.4,181.6L318.5,157
		l18.8-19.1l24.9,24.5L343.4,181.6z M219.5,284.2c-1.4-1.6-2.8-3.2-4.4-4.7c-1.5-1.5-3.2-3-4.8-4.3l-4.2-4.2l15.4-15.6l24.9,24.5
		l-15.4,15.6L219.5,284.2z M256.5,269.6L231.7,245l18.6-18.9l24.9,24.5L256.5,269.6z M285.4,240.3l-24.9-24.5l18.8-19l24.9,24.5
		L285.4,240.3z M289.5,186.4l18.8-19l24.9,24.5l-18.8,19L289.5,186.4z M336.3,266.3c0.2,30.1-1.6,33.1-38.2,60.1
		c-32.5,14.4-37.2,38.4-37.1,51.4c0,6.3-2.3,29.8-13.3,53.6c-13.2,28.7-33.2,46-59.5,51.5c-51.4,10.7-74.9-15.2-95.5-38
		c-4.6-5.1-9-9.9-13.4-14.1l-4.9-4.9c-4.7-4.9-9.9-9.6-15.4-14.5c-24.7-22.3-52.8-47.6-42.3-99.2c5.3-26.3,22.6-46.4,51.2-59.7
		C91.6,241.5,115,239,121.4,239c0,0,0.1,0,0.1,0c13.1,0,37-4.9,51.2-37.4c26.6-36.3,29.8-38.5,59-38.5c0.3,0,0.6,0,1,0
		c14.6,0,30.9,7.7,43.9,15.7l-2.5,2.5c0,0,0,0,0,0l0,0l-29,29.4c0,0,0,0,0,0s0,0,0,0L216.2,240c0,0,0,0,0,0c0,0,0,0,0,0l-24.1,24.4
		c-8.2-3.3-17-5-26.1-5c-0.2,0-0.3,0-0.5,0c-38.5,0.3-69.7,31.8-69.4,70.3l14.6-0.1c-0.2-30.5,24.5-55.5,55-55.7
		c12.8-0.1,25,4.2,34.9,12.1l8.2,8.1c8.1,9.8,12.5,21.9,12.6,34.7c0.2,30.5-24.5,55.5-55,55.7l0.1,14.6
		c38.5-0.3,69.7-31.8,69.4-70.3c0-5.5-0.7-11-2-16.2c0.8-0.4,1.6-0.9,2.3-1.6l25.6-26c0,0,0,0,0,0c0,0,0,0,0,0l57.8-58.6
		c0,0,0,0,0,0s0,0,0,0l1.9-2C329,236.9,336.2,252.4,336.3,266.3z M403.4,131.7l-0.3-0.2c-2.9-2.8-7.5-2.8-10.3,0.1l-20.3,20.6
		l-24.9-24.5L368,107c1.4-1.4,2.1-3.2,2.1-5.2c0-1.9-0.8-3.8-2.2-5.1l-0.2-0.2c-3.8-3.8-5.3-9.1-4.3-14.2l10.5-0.1
		c1.9,0,3.8-0.8,5.1-2.2l10-10.1c1.4-1.4,2.1-3.2,2.1-5.2L391,50.6l1.5-1.6c0.1,0,0.1,0,0.2,0c0,0,0,0,0,0l14.2-0.1
		c1.9,0,3.8-0.8,5.1-2.2l10-10.1c1.4-1.4,2.1-3.2,2.1-5.2l-0.1-14.2c0-0.1,0-0.2,0-0.3l1.4-1.4c1.4-1.4,3.6-1.4,5,0l52.9,52.2
		c0.9,0.9,1,1.9,1,2.5c0,0.5-0.1,1.6-1,2.5l-1.7,1.7l-13.6,0.1c-1.9,0-3.8,0.8-5.1,2.2l-10,10.1c-1.4,1.4-2.1,3.2-2.1,5.2l0.1,13.6
		l-3.1,3.1l-13.3,0.1c-1.9,0-3.8,0.8-5.1,2.2l-10,10.1c-1.4,1.4-2.1,3.2-2.1,5.2l0.1,9.6C412.5,136.9,407.2,135.5,403.4,131.7z
		 M446.2,143.1l-8.2,0.1l-5.8-5.8l-0.1-8.2l5.8-5.8l8.2-0.1l5.8,5.8l0.1,8.2L446.2,143.1z M479.6,108.8l-8.2,0.1l-5.8-5.8l-0.1-8.2
		l5.8-5.8l8.2-0.1l5.8,5.8l0.1,8.2L479.6,108.8z"/>
</g>
</svg>
