<?xml version="1.0" encoding="utf-8"?>
<!-- Generator: Adobe Illustrator 19.0.0, SVG Export Plug-In . SVG Version: 6.00 Build 0)  -->
<svg version="1.1" id="图层_1" xmlns="http://www.w3.org/2000/svg" xmlns:xlink="http://www.w3.org/1999/xlink" x="0px" y="0px"
	 viewBox="0 0 500 500" style="enable-background:new 0 0 500 500;" xml:space="preserve">
<g id="XMLID_288_">
	<path id="XMLID_380_" d="M250,226.3c-63.3,0-114.8,51.5-114.8,114.8S186.7,455.9,250,455.9s114.8-51.5,114.8-114.8
		S313.3,226.3,250,226.3z M250,441.3c-55.3,0-100.2-45-100.2-100.2s45-100.2,100.2-100.2s100.2,45,100.2,100.2
		S305.3,441.3,250,441.3z"/>
	<path id="XMLID_392_" d="M288.8,334.1c-20.2,0-36.7,16.5-36.7,36.7c0,20.2,16.5,36.7,36.7,36.7s36.7-16.5,36.7-36.7
		C325.5,350.6,309.1,334.1,288.8,334.1z M288.8,392.9c-12.2,0-22.1-9.9-22.1-22.1c0-12.2,9.9-22.1,22.1-22.1s22.1,9.9,22.1,22.1
		C311,383,301,392.9,288.8,392.9z"/>
	<path id="XMLID_470_" d="M497.6,487.6l-58.2-58.2V205.1l47.7-12.5c3.9-1,7.1-3.5,9.1-6.9c2-3.5,2.6-7.5,1.5-11.3l-13-49.4
		c-1-3.9-3.5-7.1-6.9-9.1c-3.5-2-7.5-2.6-11.3-1.5l-27,7.1V70.7v-7.1c6.9-2.3,23.4-6.3,51.8-5.2c4,0.2,7.4-3,7.6-7
		c0.2-4-3-7.4-7-7.6c-18.1-0.7-34,0.4-47.3,3.3c-5.3,1.2-9.2,2.4-11.8,3.4c-5.2-2.4-14.8-5-34.7-6.2c-13.7-0.8-25.8-0.5-26.3-0.5
		c-4,0.1-7.2,3.5-7.1,7.5c0.1,4,3.5,7.2,7.5,7.1c26.8-0.7,45.3,2,52.8,4.6v7.5v54.4l-97.5,25.7c-8,2.1-12.8,10.3-10.7,18.3l8.9,33.8
		c-20.5-11.2-43.7-18.1-68.3-19.2v-50.3h51.6c4,0,7.3-3.3,7.3-7.3s-3.3-7.3-7.3-7.3H191.1c-4,0-7.3,3.3-7.3,7.3s3.3,7.3,7.3,7.3
		h51.6v50.3c-25.5,1.2-49.4,8.4-70.4,20.3l9.2-35c1-3.9,0.5-7.9-1.5-11.3c-2-3.5-5.2-5.9-9.1-6.9l-96-25.3V70.7v-7.5
		c7.5-2.7,26-5.4,52.8-4.6c4,0.1,7.4-3.1,7.5-7.1c0.1-4-3.1-7.4-7.1-7.5c-0.5,0-12.5-0.3-26.3,0.5c-19.9,1.1-29.5,3.7-34.7,6.2
		c-2.6-1-6.5-2.2-11.8-3.4C42,44.3,26.1,43.2,8,43.9c-4,0.2-7.1,3.5-7,7.6c0.2,4,3.6,7.1,7.6,7c28.4-1.1,44.9,2.9,51.8,5.2v7.1v51
		l-28.5-7.5c-3.9-1-7.9-0.5-11.3,1.5c-3.5,2-5.9,5.2-6.9,9.1l-13,49.4c-1,3.9-0.5,7.9,1.5,11.3c2,3.5,5.3,5.9,9.1,6.9h0l49.2,12.9
		v223.9L2.1,487.6c-2.8,2.8-2.8,7.5,0,10.3c1.4,1.4,3.3,2.1,5.1,2.1c1.9,0,3.7-0.7,5.1-2.1L60.3,450v41.4c0,4,3.3,7.3,7.3,7.3
		s7.3-3.3,7.3-7.3V451l46.9,46.9c1.4,1.4,3.3,2.1,5.1,2.1c1.9,0,3.7-0.7,5.1-2.1c2.8-2.8,2.8-7.5,0-10.3l-57.2-57.2v-221l66.7,17.5
		c-30.2,28.7-49.1,69.3-49.1,114.2c0,62.2,36.2,116.1,88.6,141.7l-2.2,8c-1,3.9,1.3,7.9,5.1,8.9c0.6,0.2,1.3,0.3,1.9,0.3
		c3.2,0,6.2-2.1,7-5.4l1.6-6c17.3,6.5,35.9,10.1,55.4,10.1c19.5,0,38.3-3.6,55.5-10.1l1.6,6c0.9,3.2,3.8,5.4,7,5.4
		c0.6,0,1.3-0.1,1.9-0.3c3.9-1,6.2-5,5.1-8.9l-2.2-8.1c52.4-25.6,88.5-79.5,88.5-141.6c0-45.1-19-85.8-49.5-114.6l66.8-17.6v221.4
		l-57.2,57.2c-2.8,2.8-2.8,7.5,0,10.3c1.4,1.4,3.3,2.1,5.1,2.1c1.9,0,3.7-0.7,5.1-2.1l46.9-46.9v40.5c0,4,3.3,7.3,7.3,7.3
		s7.3-3.3,7.3-7.3V450l47.9,47.9c1.4,1.4,3.3,2.1,5.1,2.1c1.9,0,3.7-0.7,5.1-2.1C500.4,495,500.4,490.4,497.6,487.6z M14.9,178.5
		c0,0-0.2,0-0.2-0.2c-0.1-0.1-0.1-0.3,0-0.3l13-49.5c0,0,0-0.2,0.2-0.2c0.1,0,0.1-0.1,0.2-0.1c0,0,0.1,0,0.1,0l139.1,36.6
		c0,0,0.2,0,0.2,0.2c0.1,0.1,0.1,0.3,0,0.3l-13,49.5c0,0,0,0.2-0.2,0.2c-0.1,0.1-0.3,0.1-0.3,0L14.9,178.5L14.9,178.5z M393,341.1
		c0,55.4-31.7,103.5-77.8,127.3l0-0.1c-1-3.9-5-6.2-8.9-5.1c-3.9,1-6.2,5-5.1,8.9l0.6,2.4c-16.1,6.3-33.5,9.7-51.7,9.7
		c-18.2,0-35.6-3.4-51.6-9.6l0.7-2.4c1-3.9-1.3-7.9-5.1-8.9c-3.9-1-7.9,1.3-8.9,5.1l-0.1,0.2c-46.2-23.7-77.9-71.9-77.9-127.3
		c0-78.9,64.2-143,143-143c31,0,59.7,9.9,83.2,26.7c1,1.1,2.2,2,3.5,2.8c0.3,0.2,0.6,0.3,0.9,0.5C371.3,254.3,393,295.2,393,341.1z
		 M343.7,214.5l-12.9-49.2c-0.1-0.2,0.1-0.4,0.3-0.5l139.1-36.6c0,0,0.1,0,0.1,0c0.1,0,0.1,0,0.2,0.1c0.1,0.1,0.2,0.2,0.2,0.2
		l13,49.5c0,0,0,0.2,0,0.3c-0.1,0.1-0.2,0.2-0.2,0.2h0l-138.9,36.6C344.2,214.9,344,214.7,343.7,214.5z"/>
	<path id="XMLID_473_" d="M371.6,34c0.5,0,12.5,0.3,26.3-0.5c19.9-1.1,29.5-3.7,34.7-6.2c2.6,1,6.5,2.2,11.8,3.4
		c10.7,2.3,23,3.5,36.8,3.5c3.4,0,6.9-0.1,10.5-0.2c4-0.2,7.1-3.5,7-7.6c-0.2-4-3.5-7.1-7.6-7c-28.4,1.1-44.9-2.9-51.8-5.2V7.3
		c0-4-3.3-7.3-7.3-7.3s-7.3,3.3-7.3,7.3v7.5c-7.5,2.7-26,5.4-52.8,4.6c-4-0.1-7.4,3.1-7.5,7.1C364.4,30.6,367.6,33.9,371.6,34z"/>
	<path id="XMLID_474_" d="M8,34.1c3.6,0.1,7.1,0.2,10.5,0.2c13.8,0,26.2-1.2,36.8-3.5c5.3-1.2,9.2-2.4,11.8-3.4
		c5.2,2.4,14.8,5,34.7,6.2c13.7,0.8,25.8,0.5,26.3,0.5c4-0.1,7.2-3.5,7.1-7.5c-0.1-4-3.5-7.2-7.5-7.1c-26.8,0.7-45.3-2-52.8-4.6V7.3
		c0-4-3.3-7.3-7.3-7.3s-7.3,3.3-7.3,7.3v7.1c-6.9,2.3-23.3,6.3-51.8,5.2c-4-0.2-7.4,3-7.6,7C0.8,30.5,3.9,33.9,8,34.1z"/>
</g>
</svg>
