<?xml version="1.0" encoding="utf-8"?>
<!-- Generator: Adobe Illustrator 19.0.0, SVG Export Plug-In . SVG Version: 6.00 Build 0)  -->
<svg version="1.1" id="图层_1" xmlns="http://www.w3.org/2000/svg" xmlns:xlink="http://www.w3.org/1999/xlink" x="0px" y="0px"
	 viewBox="0 0 500 500" style="enable-background:new 0 0 500 500;" xml:space="preserve">
<g id="XMLID_280_">
	<path id="XMLID_451_" d="M497.9,487.6L327.1,316.8c24.5-34.2,26.4-79.9,4.5-116l85-81.7l4.8,5c3.3,3.4,7.7,5.3,12.4,5.4
		c0.1,0,0.2,0,0.4,0c4.6,0,8.9-1.7,12.2-4.9l0.6-0.6l16.4,16.9c1.4,1.5,3.3,2.2,5.2,2.2c1.8,0,3.6-0.7,5.1-2c2.9-2.8,3-7.4,0.2-10.3
		L457.5,114l13.2-12.7c0.2-0.2,0.3-0.3,0.5-0.5l16.2,16.7c1.4,1.5,3.3,2.2,5.2,2.2c1.8,0,3.6-0.7,5.1-2c2.9-2.8,3-7.4,0.2-10.3
		l-18.3-18.9c2.1-4.7,3.2-9.8,3.3-15.1c0.2-10.6-3.7-20.7-11.1-28.4l-12.6-13.1c-7.4-7.7-17.3-12-27.9-12.2c-0.3,0-0.5,0-0.8,0
		c-5,0-9.9,0.9-14.5,2.7L396.5,2.2c-2.8-2.9-7.4-3-10.3-0.2c-2.9,2.8-3,7.4-0.2,10.3l17.5,18c-0.2,0.1-0.3,0.3-0.5,0.4l-13.3,12.7
		l-17-17.6c-2.8-2.9-7.4-3-10.3-0.2c-2.9,2.8-3,7.4-0.2,10.3l17,17.5l-0.5,0.5c-7,6.7-7.3,18-0.5,25l4.8,5l-85.5,82.1
		c-18.3-11.4-40.1-17-61.9-15.7c-19.9,1.1-39.2,8-55.3,19.5L12.4,2.1C9.6-0.7,5-0.7,2.1,2.1c-2.8,2.8-2.8,7.4,0,10.3l41.8,41.8
		c-11.8,15.3-10.7,37.5,3.4,51.5l111.2,111.2c0,0.3-0.1,0.7-0.1,1c-1.7,14-10.9,59.4-58.6,56.6c-7.6-0.4-14.6-3.2-20.7-8.2l-4.8-3.9
		l-11.5,10.1c-5.6-12.3-13.5-19.2-22.6-19.4c-9.7-0.2-18.5,7.4-24.7,21.3c-5.3,11.9-8.4,27.7-8.8,44.5c-0.1,4.3,0,8.5,0.3,12.8
		c-14.4,33.2-6.1,72.9,21.1,99.4l43.6,42.5c18,17.5,41.2,26.3,64,26.3c22.1,0,43.8-8.3,60-24.9l36.1-43.3l-2.9-4.5
		c-2.3-3.6-3.9-7.6-4.8-11.8c-9.6-46.8,34.1-62.4,47.7-66.1c10.4-2.8,16.5-1.2,19.8,0.7l95,95c7.4,7.4,17.2,11.5,27.7,11.5
		c8.7,0,17-2.8,23.8-8.1l49.5,49.5c1.4,1.4,3.3,2.1,5.1,2.1s3.7-0.7,5.1-2.1C500.7,495,500.7,490.4,497.9,487.6z M388.7,69.1
		c-1.2-1.2-1.2-3.2,0.1-4.4l24.3-23.4c4.7-4.6,10.9-7,17.5-7c0.2,0,0.3,0,0.5,0c6.7,0.1,13,2.9,17.7,7.8l12.6,13.1
		c4.7,4.9,7.2,11.3,7,18c-0.1,6.7-2.9,13-7.8,17.7l-24.3,23.4c-0.8,0.8-1.8,0.9-2.2,0.9c-0.5,0-1.4-0.1-2.2-1l-27.3-28.4L393.5,74
		l0,0L388.7,69.1z M399.8,101.6l6.8,7.1l-89.3,85.8l-59.7,57.3L244,237.7l59.4-57L393,94.6L399.8,101.6z M50.4,78
		c0-4.8,1.4-9.4,4-13.4l114.6,114.6l-14.7,12.9L57.6,95.4C52.9,90.7,50.4,84.6,50.4,78z M21.2,319.2c0.6-31.1,11.6-51.5,18.6-51.5
		c0,0,0,0,0.1,0c3.5,0.1,9,6.1,12.7,19.3c0,0,0,0,0,0c2.7,9.6,4.1,21,3.8,32.9c-0.6,31.2-11.6,51.6-18.7,51.5
		c-2.4,0-5.4-2.7-8.2-7.8c-0.6-1.1-1.2-2.3-1.8-3.6c-2.7-6.1-4.9-14.6-6-25.4c-0.1-0.8-0.1-1.5-0.2-2.3c0,0,0,0,0,0
		C21.3,328,21.1,323.6,21.2,319.2z M268,335.3c-34.4,9.3-67.8,36-58.1,83.1c0.9,4.2,2.2,8.2,4.1,12L185.1,465
		c-27.3,27.8-73.6,26.9-103.2-1.9l-43.6-42.5c-15.4-15-23.6-34.9-23.7-54.7c0,0.1,0.1,0.1,0.1,0.2c0.3,0.7,0.6,1.3,0.9,1.9
		c0.1,0.2,0.2,0.5,0.3,0.7c0.2,0.5,0.5,0.9,0.7,1.3c0.1,0.3,0.3,0.5,0.4,0.7c0.2,0.4,0.5,0.8,0.7,1.2c0.1,0.2,0.3,0.5,0.4,0.7
		c0.2,0.4,0.5,0.8,0.7,1.2c0.1,0.2,0.3,0.4,0.4,0.6c0.3,0.5,0.6,0.9,1,1.3c0.1,0.1,0.1,0.2,0.2,0.3c0.4,0.5,0.8,1,1.2,1.5
		c0.1,0.1,0.3,0.3,0.4,0.4c0.3,0.3,0.6,0.7,0.9,1c0.2,0.2,0.3,0.3,0.5,0.5c0.3,0.3,0.6,0.5,0.8,0.8c0.2,0.2,0.3,0.3,0.5,0.5
		c0.3,0.2,0.6,0.5,0.9,0.7c0.2,0.1,0.3,0.3,0.5,0.4c0.3,0.2,0.7,0.5,1,0.7c0.1,0.1,0.3,0.2,0.4,0.3c0.5,0.3,1,0.6,1.4,0.8
		c0.1,0.1,0.2,0.1,0.3,0.2c0.4,0.2,0.8,0.4,1.2,0.5c0.2,0.1,0.4,0.1,0.5,0.2c0.3,0.1,0.7,0.3,1,0.4c0.2,0.1,0.4,0.1,0.6,0.2
		c0.3,0.1,0.7,0.2,1,0.3c0.2,0,0.4,0.1,0.6,0.1c0.4,0.1,0.7,0.1,1.1,0.2c0.2,0,0.3,0.1,0.5,0.1c0.5,0.1,1.1,0.1,1.6,0.1c0,0,0,0,0,0
		h0h0c0.1,0,0.2,0,0.4,0c0.3,0,0.5,0,0.8,0c0.3,0,0.5,0,0.8,0c0.4,0,0.8-0.1,1.2-0.2c0.2,0,0.4,0,0.5-0.1c0.5-0.1,0.9-0.2,1.4-0.3
		c0.1,0,0.2,0,0.3-0.1c0.5-0.2,1.1-0.3,1.6-0.5c0,0,0,0,0.1,0c6.3-2.5,11.9-8.3,16.3-17.3c0-0.1,0.1-0.1,0.1-0.2
		c0.4-0.8,0.8-1.7,1.2-2.5c5.3-11.9,8.4-27.7,8.8-44.5c0-1.6,0-3.1,0-4.7c0-0.5,0-1,0-1.5c0-1.1,0-2.1-0.1-3.2
		c0-0.6-0.1-1.2-0.1-1.7c-0.1-1-0.1-1.9-0.2-2.9c0-0.6-0.1-1.2-0.1-1.8c-0.1-0.9-0.2-1.9-0.3-2.8c-0.1-0.6-0.1-1.1-0.2-1.7
		c-0.1-1-0.3-1.9-0.4-2.8c-0.1-0.5-0.1-1-0.2-1.5c-0.2-1.1-0.4-2.2-0.6-3.3c-0.1-0.3-0.1-0.6-0.2-0.9c-0.3-1.3-0.5-2.6-0.8-3.9
		l7.1-6.2c7.3,4.7,15.3,7.3,24,7.8c48,2.8,69.6-34,73.9-69.4c1-8.7,0.3-16.2-2.2-22.5l9.2-8.1l0.1-0.1
		c29.2-26.8,72.7-31.5,106.7-12.3l-63.2,60.7l33.7,35.1l63.7-61.2c18.5,33.3,14.4,75-11.1,104.2L293.4,335
		C287.5,333,279.2,332.2,268,335.3z M414.2,441.9c-6.6,0-12.7-2.6-17.4-7.2l-91.4-91.4l12.5-15l109.7,109.7
		C423.7,440.5,419.1,441.9,414.2,441.9z"/>
	<path id="XMLID_458_" d="M190.1,324.5c-2.9,2.8-3,7.4-0.2,10.3c0,0,2.7,2.9,3.9,6.6c1.3,3.9,0.5,7-2.6,10L155,386.2
		c-3.1,2.7-12.8,13.1-1.6,30.5c1.4,2.2,3.7,3.3,6.1,3.3c1.4,0,2.7-0.4,3.9-1.2c3.4-2.2,4.3-6.7,2.2-10.1c-4.7-7.3-2.5-10.4-1.5-11.3
		l0.2-0.1l36.9-35.5c13.3-12.8,6.8-29.2-0.9-37.1C197.6,321.8,193,321.7,190.1,324.5z"/>
	<path id="XMLID_461_" d="M159,305.4c3.6,1.4,6.3,4,6.4,4.2c2.8,2.9,7.4,3,10.3,0.2c2.9-2.8,3-7.4,0.2-10.3
		c-0.5-0.5-4.7-4.8-11.1-7.4c-9.4-3.8-18.6-2.1-26,5L102.5,332l-0.3,0.2l-0.4,0.7c-0.9,1-4.1,3.1-11.2-2c-3.3-2.3-7.8-1.5-10.1,1.8
		c-2.3,3.3-1.5,7.8,1.8,10.1c6.3,4.4,11.7,5.9,16.2,5.9c7.6,0,12.6-4.4,14.3-6.3l36.2-34.8C152,304.6,155.1,304,159,305.4z"/>
</g>
</svg>
