<?xml version="1.0" encoding="utf-8"?>
<!-- Generator: Adobe Illustrator 19.0.0, SVG Export Plug-In . SVG Version: 6.00 Build 0)  -->
<svg version="1.1" id="图层_1" xmlns="http://www.w3.org/2000/svg" xmlns:xlink="http://www.w3.org/1999/xlink" x="0px" y="0px"
	 viewBox="0 0 500 500" style="enable-background:new 0 0 500 500;" xml:space="preserve">
<g id="XMLID_6_">
	<path id="XMLID_7_" d="M140.8,0v500h-16.8V23.1C90.3,63,49,90.3,0,104.3V86.1c23.8-7.7,46.2-18.2,67.2-32.2
		C88.2,39.2,107.1,21,123.9,0H140.8z"/>
</g>
<g id="XMLID_3_">
	<path id="XMLID_4_" d="M458.1,36.4c27.5,24,41.2,57,41.2,98.2c0,43.3-16.5,81.7-48.8,115.4c-13.7,13.7-47.4,39.1-101.6,77.6
		c-82.4,57-127.1,109.2-132.6,155.9H500V500H197.8c0-35.7,15.8-72.1,48.8-107.8c20.6-24,52.9-50.8,96.2-81
		c49.5-35.7,81-59.8,93.4-72.1c30.9-31.6,46.7-66.6,46.7-104.4c0-35.7-12.4-64.6-36.4-85.8c-24-22-54.9-32.3-92-32.3
		c-39.8,0-71.4,12.4-94.8,38.5c-26.1,27.5-39.1,65.9-39.1,116.1H204c0-54.9,14.4-97.5,43.3-127.7C274,14.4,309.8,0,354.4,0
		C395.6,0,430.6,11.7,458.1,36.4z"/>
</g>
</svg>
