<?xml version="1.0" encoding="utf-8"?>
<!-- Generator: Adobe Illustrator 19.0.0, SVG Export Plug-In . SVG Version: 6.00 Build 0)  -->
<svg version="1.1" id="图层_1" xmlns="http://www.w3.org/2000/svg" xmlns:xlink="http://www.w3.org/1999/xlink" x="0px" y="0px"
	 viewBox="0 0 500 500" style="enable-background:new 0 0 500 500;" xml:space="preserve">
<path id="XMLID_290_" d="M250,45c54.8,0,106.2,21.3,145,60c38.7,38.7,60,90.2,60,145s-21.3,106.2-60,145c-38.7,38.7-90.2,60-145,60
	s-106.2-21.3-145-60c-38.7-38.7-60-90.2-60-145s21.3-106.2,60-145C143.8,66.3,195.2,45,250,45 M250,0C111.9,0,0,111.9,0,250
	s111.9,250,250,250s250-111.9,250-250S388.1,0,250,0L250,0z"/>
</svg>
