<?xml version="1.0" encoding="utf-8"?>
<!-- Generator: Adobe Illustrator 19.0.0, SVG Export Plug-In . SVG Version: 6.00 Build 0)  -->
<svg version="1.1" id="图层_1" xmlns="http://www.w3.org/2000/svg" xmlns:xlink="http://www.w3.org/1999/xlink" x="0px" y="0px"
	 viewBox="0 0 500 500" style="enable-background:new 0 0 500 500;" xml:space="preserve">
<path id="XMLID_348_" d="M494.6,301.9c-7.4-19-21.7-39.3-40.3-57.2c-18.6-17.9-39.4-31.5-58.7-38.1c-21.1-7.3-38.2-5.6-48.3,4.8
	c-10,10.4-11.1,27.6-3,48.4c0.2,0.4,0.3,0.8,0.5,1.2c9.1,27,11.1,44,11.5,51.7v30.3h-3.9c-13.8,0-25.1,10.9-25.1,24.3
	c0,13.4,11.2,24.3,25.1,24.3h2.8c-3.2,11.1-13.4,19.2-25.5,19.2c-14.6,0-26.5-11.9-26.5-26.5v-8.7c1.4-0.3,2.7-1,3.7-2l10.1-10.1
	c1.4-1.4,2.1-3.2,2.1-5.1v-14.3c0-1.9-0.8-3.8-2.1-5.1l-10.1-10.1c-1-1-2.3-1.7-3.7-2v-9.5c1.4-0.3,2.7-1,3.7-2l10.1-10.1
	c1.4-1.4,2.1-3.2,2.1-5.1v-14.3c0-1.9-0.8-3.8-2.1-5.1l-10.1-10.1c-1-1-2.3-1.7-3.7-2v-10.7c1.4-0.3,2.7-1,3.7-2l10.1-10.1
	c1.4-1.4,2.1-3.2,2.1-5.1v-14.3c0-1.9-0.8-3.8-2.1-5.1L307.1,211c-1-1-2.3-1.7-3.7-2v-8.1c1.4-0.3,2.7-1,3.7-2l10.1-10.1
	c1.4-1.4,2.1-3.2,2.1-5.1v-14.3c0-1.9-0.8-3.8-2.1-5.1L307.1,154c-1-1-2.3-1.7-3.7-2v-10.4c1.4-0.3,2.7-1,3.7-2l10.1-10.1
	c1.4-1.4,2.1-3.2,2.1-5.1V110c0-1.9-0.8-3.8-2.1-5.1l-10.1-10.1c-1.4-1.4-3.2-2.1-5.1-2.1h-0.1c-3.8-26-17.7-74.3-68.2-89.2
	c-42-13.5-76.2,17.3-77.6,18.6c-0.1,0.1-0.1,0.1-0.2,0.2c-0.1,0.1-14.1,13.6-37,13.6H118v-5.6c0-4-3.3-7.3-7.3-7.3H85.6
	c-4,0-7.3,3.3-7.3,7.3v5.6H52.7c-0.2,0-0.5,0-0.7,0c0,0,0,0,0,0c-0.3,0-0.6,0.1-0.9,0.1c-0.1,0-0.1,0-0.2,0
	c-0.2,0.1-0.5,0.1-0.7,0.2c-0.1,0-0.1,0-0.2,0.1c-0.2,0.1-0.5,0.2-0.7,0.3c0,0,0,0-0.1,0l0,0c0,0,0,0,0,0l-45.3,24
	C1.5,61.9,0,64.3,0,67v24.7c0,4,3.3,7.3,7.3,7.3h45.4h25.6v4.8c0,4,3.3,7.3,7.3,7.3h25.1c4,0,7.3-3.3,7.3-7.3v-4.8h0.5
	c4.4,0.4,33.6,2,61.5-23.6c16.5-15.2,33.4-17.4,47.4-6.3c6.6,5.2,10.5,13.5,10.5,22.2v60.5h-11.5c-4,0-7.3,3.3-7.3,7.3
	c0,4,3.3,7.3,7.3,7.3h11.5v17.7h-11.5c-4,0-7.3,3.3-7.3,7.3c0,4,3.3,7.3,7.3,7.3h11.5v69.7h-11.5c-4,0-7.3,3.3-7.3,7.3
	s3.3,7.3,7.3,7.3h11.5v18.6h-11.5c-4,0-7.3,3.3-7.3,7.3s3.3,7.3,7.3,7.3h11.5V384c0,64,52.1,116,116,116c64,0,116-52.1,116-116v-6.1
	c0-0.4,0-0.7-0.1-1.1c-0.1-0.6-1.7-12.8,10.4-19.3c4.4-1.5,8.2-3.9,11.4-7.2C501.6,339.9,502.7,322.8,494.6,301.9z M342,367.4
	c0-5.4,4.7-9.8,10.5-9.8h3.9v19.6h-3.9C346.8,377.2,342,372.8,342,367.4z M304.8,355.5l-5.9,5.9h-8.3l-5.9-5.9v-8.3l5.9-5.9h8.3
	l5.9,5.9V355.5z M304.8,297.1l-5.9,5.9h-8.3l-5.9-5.9v-8.3l5.9-5.9h8.3l5.9,5.9V297.1z M304.8,237.6l-5.9,5.9h-8.3l-5.9-5.9v-8.3
	l5.9-5.9h8.3l5.9,5.9V237.6z M304.8,180.6l-5.9,5.9h-8.3l-5.9-5.9v-8.3l5.9-5.9h8.3l5.9,5.9V180.6z M304.8,121.3l-5.9,5.9h-8.3
	l-5.9-5.9V113l5.9-5.9h8.3l5.9,5.9V121.3z M14.6,71.4l30.8-16.3v29.4H14.6V71.4z M59.9,84.5V50.3h18.3v34.2H59.9z M103.4,96.6H92.8
	V37.4h10.6V96.6z M455.4,384c0,56-45.5,101.5-101.5,101.5S252.4,440,252.4,384v-67.8h9.7c4,0,7.3-3.3,7.3-7.3s-3.3-7.3-7.3-7.3h-9.7
	V283h9.7c4,0,7.3-3.3,7.3-7.3s-3.3-7.3-7.3-7.3h-9.7v-69.7h9.7c4,0,7.3-3.3,7.3-7.3c0-4-3.3-7.3-7.3-7.3h-9.7v-17.7h9.7
	c4,0,7.3-3.3,7.3-7.3c0-4-3.3-7.3-7.3-7.3h-9.7V91.4c0-13.3-5.8-25.6-16-33.6c-19.7-15.6-44.5-13-66.3,7
	c-24.4,22.4-49.4,19.9-50.4,19.8c-0.3,0-0.6-0.1-0.9-0.1H118V50.3h0.9c27.9,0,45.1-15.7,47.1-17.6c1.5-1.3,30.2-26.1,63.3-15.4
	c0.1,0,0.1,0,0.2,0.1c20,5.9,35.3,18.6,45.5,37.8c6.9,12.9,10.4,26.5,12.1,37.5c-1.8,0.1-3.4,0.9-4.7,2.1l-10.1,10.1
	c-1.4,1.4-2.1,3.2-2.1,5.1v14.3c0,1.9,0.8,3.8,2.1,5.1l10.1,10.1c1.4,1.4,3.2,2.1,5.1,2.1h1.2v10.1h-1.2c-1.9,0-3.8,0.8-5.1,2.1
	l-10.1,10.1c-1.4,1.4-2.1,3.2-2.1,5.1v14.3c0,1.9,0.8,3.8,2.1,5.1l10.1,10.1c1.4,1.4,3.2,2.1,5.1,2.1h1.2v7.8h-1.2
	c-1.9,0-3.8,0.8-5.1,2.1l-10.1,10.1c-1.4,1.4-2.1,3.2-2.1,5.1v14.3c0,1.9,0.8,3.8,2.1,5.1l10.1,10.1c1.4,1.4,3.2,2.1,5.1,2.1h1.2
	v10.4h-1.2c-1.9,0-3.8,0.8-5.1,2.1l-10.1,10.1c-1.4,1.4-2.1,3.2-2.1,5.1v14.3c0,1.9,0.8,3.8,2.1,5.1l10.1,10.1
	c1.4,1.4,3.2,2.1,5.1,2.1h1.2v9.2h-1.2c-1.9,0-3.8,0.8-5.1,2.1l-10.1,10.1c-1.4,1.4-2.1,3.2-2.1,5.1v14.3c0,1.9,0.8,3.8,2.1,5.1
	l10.1,10.1c1.4,1.4,3.2,2.1,5.1,2.1h1.2v8.6c0,22.7,18.4,41.1,41.1,41.1c20.2,0,37-14.6,40.4-33.8h17c4,0,7.3-3.3,7.3-7.3
	c0-4-3.3-7.3-7.3-7.3H371v-19.6h16.4c4,0,7.3-3.3,7.3-7.3s-3.3-7.3-7.3-7.3H371v-24.5c0.1-0.9,0.1-3,0-6.3v-9.8
	c0.1,0.2,0.3,0.3,0.4,0.4c0.4,0.4,0.8,0.9,1.2,1.3c0.7,0.8,1.3,1.5,2,2.3c0.4,0.4,0.8,0.8,1.2,1.3c0.7,0.8,1.4,1.5,2.1,2.3
	c0.5,0.5,1,1,1.5,1.5c0.6,0.6,1.2,1.3,1.9,1.9c1.1,1.2,2.3,2.3,3.5,3.4c1,1,2.1,2,3.2,3c0.2,0.2,0.5,0.5,0.7,0.7
	c2.2,2,4.4,4,6.6,5.8c0.1,0.1,0.2,0.2,0.3,0.2c17.8,15,36.7,25.6,53.7,30.2c0.4,0.1,0.7,0.2,1.1,0.3c0.4,0.1,0.9,0.2,1.3,0.3
	c2.5,0.6,5,1.1,7.4,1.4c-3.6,7.1-4.3,14.4-3.7,19.3V384z M481.1,340.3c-0.8,0.9-1.8,1.6-3,2.3c-1.2,0.5-2.3,1-3.4,1.5
	c-3.2,1-7,1.3-11.4,0.9l0,0c-2.4-0.2-5-0.6-7.6-1.2c-0.4-0.1-0.9-0.2-1.3-0.3c-0.4-0.1-0.7-0.2-1.1-0.3c-0.8-0.2-1.6-0.4-2.4-0.7
	c-0.1,0-0.1,0-0.2-0.1c-0.9-0.3-1.8-0.6-2.7-0.9c-3.2-1.1-6.4-2.4-9.7-3.9c-0.2-0.1-0.3-0.2-0.5-0.2c-0.8-0.4-1.5-0.7-2.3-1.1
	c-0.6-0.3-1.2-0.6-1.8-0.9c-0.5-0.3-1-0.5-1.5-0.8c-0.7-0.4-1.4-0.8-2.1-1.1c0,0-0.1,0-0.1,0c-8.1-4.5-16.3-10.2-24.3-16.8
	c-0.1-0.1-0.2-0.2-0.3-0.3c-0.6-0.5-1.2-1-1.8-1.5c-0.5-0.4-0.9-0.8-1.4-1.2c-0.6-0.5-1.2-1-1.8-1.5c-0.7-0.6-1.4-1.3-2.1-1.9
	c-0.3-0.3-0.6-0.5-0.9-0.8c-0.9-0.9-1.9-1.7-2.8-2.6c-1.2-1.1-2.3-2.3-3.5-3.4c-0.3-0.3-0.6-0.6-0.9-0.9c-0.8-0.9-1.7-1.7-2.5-2.6
	c-0.3-0.3-0.6-0.6-0.9-0.9c-0.8-0.9-1.6-1.8-2.4-2.7c-0.2-0.3-0.5-0.5-0.7-0.8c-0.9-1-1.7-1.9-2.5-2.9c-0.2-0.2-0.3-0.4-0.5-0.5
	c-0.9-1.1-1.9-2.2-2.8-3.4c0,0-0.1-0.1-0.1-0.1c-3-3.7-5.8-7.6-8.3-11.4c0-0.1-0.1-0.1-0.1-0.1c-4.8-7.2-8.5-14.2-11.1-20.7
	c-0.8-2.4-1.7-5-2.7-7.5c-3.6-12.1-2.9-21.8,2-26.9c3.1-3.2,8-4.8,14.2-4.8c17.5,0,45.4,12.7,72.2,38.5
	C480.5,290.2,492.8,328.1,481.1,340.3z"/>
</svg>
