<?xml version="1.0" encoding="utf-8"?>
<!-- Generator: Adobe Illustrator 19.2.1, SVG Export Plug-In . SVG Version: 6.00 Build 0)  -->
<svg version="1.1" id="图层_1" xmlns="http://www.w3.org/2000/svg" xmlns:xlink="http://www.w3.org/1999/xlink" x="0px" y="0px"
	 viewBox="0 0 423.9 229" style="enable-background:new 0 0 423.9 229;" xml:space="preserve">
<style type="text/css">
	.st0{fill:#FFFFFF;}
</style>
<title>banner字</title>
<g>
	<g>
		<path class="st0" d="M73.7,63.6c0.9,2.8,1.5,5.8,1.6,9.1c0,4.4-0.6,7.4-1.8,9.2c-1.3,1.9-4.3,2.8-9,2.8h-2l-1-2.7h2.6
			c3.5-0.1,5.7-0.6,6.6-1.6c1.1-1.4,1.6-3.9,1.6-7.7c0-1.3-0.2-2.6-0.3-3.8c-6.2,5.1-14.8,9.3-25.7,12.7L44.8,79
			c11.5-3.4,20.4-7.7,26.5-13c-0.4-1.6-1.1-3.3-1.9-5c-5.5,4.4-12.9,7.9-22.4,10.7L45.5,69c9.8-2.7,17.3-6.1,22.5-10.3
			c-0.9-1.4-1.9-2.6-2.8-3.5l-1.8,0.9c-4.2,1.9-9.3,3.7-15.3,5.4l-1.6-2.6c5.5-1.3,10.5-2.9,14.8-4.7c2.5-1.1,4.9-2.3,7.2-3.7H51.7
			v-2.9H86v2.9H72.8c-1.8,1.2-3.6,2.4-5.3,3.4c2.2,2.2,3.9,4.6,5.1,7.3c5.5-1.5,10.7-3.8,15.7-7.1l2.1,2c-3.1,2.1-6.4,3.8-9.9,5.3
			c2.7,7.5,7.2,13.5,13.3,17.9l-2.2,2.6c-6.4-5.1-11-11.6-13.6-19.5C76.3,62.9,74.9,63.4,73.7,63.6z M69.1,32.7
			c0.8,1.8,1.4,3.7,2,5.7h21.4v9.3h-3.1v-6.4H48.2v6.4h-3.1v-9.3h23c-0.6-1.6-1.3-3.3-2.2-5.2L69.1,32.7z"/>
		<path class="st0" d="M124.1,61.2H106V35.4h39v25.8h-17.9v7.4H148v3h-20.9v8.1h23.3v3h-49.7v-3h23.3v-8.1h-20.9v-3h20.9V61.2z
			 M124.1,38.3h-15v8.6h15V38.3z M109.1,49.7v8.6h15v-8.6H109.1z M142,46.8v-8.6h-14.9v8.6H142z M127.1,58.3H142v-8.6h-14.9V58.3z"
			/>
		<path class="st0" d="M167.6,78.3c0,4.5-1.9,7.7-5.7,9.8l-1.2-2c2.7-1.8,4.2-4.1,4.3-6.9l-0.9,0.1c-0.8,0-1.5-0.2-2.1-0.7
			c-0.5-0.5-0.8-1.2-0.8-2c0-1,0.3-1.7,0.8-2.1c0.5-0.5,1.2-0.8,2.1-0.8C166.4,73.6,167.6,75.2,167.6,78.3z"/>
		<path class="st0" d="M236.3,68.4c2.4,2.5,4.6,5,6.6,7.7c6.8-2.9,12-7.1,15.8-12.8h-17.5c-5.1,2.4-11.1,4.2-18.1,5.3l-1.8-2.7
			c12.3-1.2,21.5-5.1,27.5-11.5l2.6,1.4c-1.6,1.7-3.4,3.3-5.3,4.6h16.6v2.4c-8,13.5-23,20.5-44.9,20.9l-1.2-3
			c9.2-0.1,17-1.3,23.6-3.6c-2.1-2.8-4.2-5.3-6.4-7.4L236.3,68.4z M242.1,34.4c-1.4,1.6-2.7,2.8-4,3.9h17.1v2.5
			c-6.1,10.9-17.5,17-34.1,18.3l-1.3-2.8c5.5-0.3,10.3-1.2,14.5-2.6c-1.9-2.4-3.8-4.5-6-6.3l2.7-1.3c2.3,2.1,4.3,4.3,6.2,6.6
			c6.3-2.6,11.1-6.5,14.5-11.6h-17.5c-4.4,2.7-9.7,4.7-15.7,6l-1.8-2.7c10.2-2,17.8-5.8,22.8-11.4L242.1,34.4z"/>
		<path class="st0" d="M295.3,52c5.9-3.5,11.5-7.6,16.9-12.3h-38v-3h42.2v3c-5.2,4.7-11.2,9.3-18.1,13.9v26.3c0,3-1.6,4.5-4.8,4.5
			c-2.6,0-5.6-0.1-9-0.2l-0.9-3c2.7,0.2,5.7,0.3,9,0.3c1.7,0,2.6-0.8,2.6-2.3V52z"/>
		<path class="st0" d="M354.1,33.1c4.8,8,13,15,24.8,21.1l-1.8,2.7c-10.9-5.6-19-12.6-24.4-20.9c-6.4,9.1-14.6,16.2-24.4,21.2
			l-1.8-2.8c10.7-5.5,19-12.6,24.8-21.4H354.1z M351.2,49.7h3.1v35.1h-3.1V49.7z"/>
	</g>
	<g>
		<path class="st0" d="M49.7,112.2h38.6c-1.7-3.9-3.5-7.3-5.4-10.4l6-1c1.7,3.3,3.4,7.1,5,11.4h37.3v5.4h-17.1
			c-1.4,6.2-3.6,12.3-6.8,18.3H136v5.3H44.8v-5.3h27.9c-2.1-6.9-4.3-12.9-6.5-18.3H49.7V112.2z M121.7,150.8v45.5h-5.5v-5.4H64.9
			v5.4h-5.5v-45.5H121.7z M64.9,168.5h51.3v-12.7H64.9V168.5z M64.9,185.9h51.3v-12.5H64.9V185.9z M72.1,117.6
			c2.3,6.1,4.3,12.2,6,18.3h23.6c3.1-5.9,5.4-12,6.9-18.3H72.1z"/>
		<path class="st0" d="M190.4,159.8c-5.6,12.5-12.1,23.1-19.4,31.9l-4.9-3.4c7.5-8.5,13.9-18.8,19.3-30.8L190.4,159.8z M171.8,148.4
			c3.2-13.9,5.5-26.9,7.1-38.8c1.9,0.3,3.4,0.4,4.5,0.4c25-0.1,45.3-2.6,60.9-7.5l2.8,4.9c-16.2,4.6-37.4,7.1-63.6,7.4
			c-1.9,11.4-3.7,20.7-5.4,28.1h31.9v-20.7h5.6v20.7h38.7v5.5h-38.7v37.8c0,6.4-2.9,9.6-8.8,9.6h-13.8l-1.2-5.4
			c6.1,0.3,10.5,0.4,13.1,0.4c3.5,0,5.2-2,5.2-6v-36.4H171.8z M236,156.7c6.6,10,12.9,21.1,18.7,33l-5.2,2.7
			c-5.9-12.6-12-23.7-18.5-33.3L236,156.7z"/>
		<path class="st0" d="M342.3,157.5c1.7,5.1,2.7,10.6,2.9,16.7c0,8-1.1,13.6-3.2,16.8c-2.4,3.4-7.8,5.1-16.4,5.1h-3.6l-1.9-4.9h4.8
			c6.4-0.1,10.4-1.1,12-2.9c1.9-2.5,2.9-7.2,2.9-14.1c-0.1-2.4-0.3-4.7-0.6-7c-11.4,9.3-27.1,17.1-46.9,23.2l-2.8-4.9
			c21.1-6.2,37.3-14.2,48.5-23.8c-0.8-3-1.9-6-3.5-9.1c-10,8-23.6,14.5-40.9,19.5l-2.7-4.9c17.9-4.9,31.6-11.2,41.1-18.8
			c-1.7-2.6-3.4-4.7-5.1-6.4l-3.3,1.7c-7.7,3.5-17,6.8-28,9.9l-3-4.7c10.1-2.4,19.1-5.2,27.1-8.6c4.6-2,8.9-4.3,13.1-6.8h-30.4v-5.3
			h62.6v5.3h-24.1c-3.3,2.3-6.5,4.4-9.7,6.2c3.9,4,7.1,8.4,9.3,13.3c10.1-2.7,19.7-7,28.7-13l3.8,3.7c-5.6,3.8-11.6,7-18.1,9.7
			c5,13.7,13.1,24.6,24.3,32.7l-3.9,4.7c-11.8-9.3-20.1-21.3-24.9-35.7C347.1,156.2,344.5,157,342.3,157.5z M333.9,100.9
			c1.4,3.3,2.6,6.8,3.7,10.5h39.2v17h-5.6v-11.7h-75.5v11.7H290v-17h42.1c-1-2.9-2.4-6.1-3.9-9.6L333.9,100.9z"/>
	</g>
</g>
</svg>
