<?xml version="1.0" encoding="utf-8"?>
<!-- Generator: Adobe Illustrator 19.0.0, SVG Export Plug-In . SVG Version: 6.00 Build 0)  -->
<svg version="1.1" id="图层_1" xmlns="http://www.w3.org/2000/svg" xmlns:xlink="http://www.w3.org/1999/xlink" x="0px" y="0px"
	 viewBox="0 0 500 500" style="enable-background:new 0 0 500 500;" xml:space="preserve">
<style type="text/css">
	.st0{fill:#040000;}
</style>
<path id="XMLID_286_" class="st0" d="M404.7,209.8c-0.3-2.3-0.5-5.3-0.8-8.8c-2.2-27.4-6.7-84.4-63.2-110.5
	c-55.8-25.8-71.1-84.3-71.3-84.9c-0.9-3.6-4.3-5.9-8-5.5c-3.7,0.4-6.4,3.5-6.4,7.2v129.5c0,0,0,0,0,0.1v196.6h-68.7
	c-45.9,0-83.2,37.3-83.2,83.2c0,45.9,37.3,83.2,83.2,83.2s83.2-37.3,83.2-83.2v-76v-7.3V144.7c53.6,7.4,122.2,70.7,122.9,71.4
	c2.2,2.1,5.6,2.6,8.3,1.1C403.5,215.8,405.1,212.8,404.7,209.8z M255,416.7c0,37.9-30.8,68.7-68.7,68.7s-68.7-30.8-68.7-68.7
	c0-37.9,30.8-68.7,68.7-68.7H255V416.7z M269.6,130V42.8c11.7,20.5,31.8,45.5,65,60.8c43.8,20.2,51.4,62.2,54,89.7
	C364.6,173.4,313.6,135.2,269.6,130z"/>
</svg>
