<svg id="图层_1" data-name="图层 1" xmlns="http://www.w3.org/2000/svg" viewBox="0 0 500 500"><defs><style>.cls-1{fill:#231815;}</style></defs><title>自由选择</title><path class="cls-1" d="M464.57,0H35.44A35.48,35.48,0,0,0,0,35.44V380.83a35.48,35.48,0,0,0,35.44,35.44H189.32l-19.74,69.17H157.76a7.28,7.28,0,0,0,0,14.56H341.27a7.28,7.28,0,1,0,0-14.56H330.43l-19.75-69.17H464.57A35.48,35.48,0,0,0,500,380.83V35.44A35.48,35.48,0,0,0,464.57,0ZM35.44,14.56H464.57a20.9,20.9,0,0,1,20.87,20.87V333.66H14.56V35.44A20.9,20.9,0,0,1,35.44,14.56ZM315.28,485.44H184.72l19.74-69.17h91.07ZM464.57,401.7H35.44a20.9,20.9,0,0,1-20.87-20.87v-32.6H485.44v32.6A20.9,20.9,0,0,1,464.57,401.7Z"/><path class="cls-1" d="M214.5,263.35a7.29,7.29,0,0,0,10.3,0L364.65,123.51a7.28,7.28,0,0,0-10.3-10.3l-134.7,134.7-74-74a7.28,7.28,0,0,0-10.3,10.3Z"/></svg>