<svg id="图层_1" data-name="图层 1" xmlns="http://www.w3.org/2000/svg" viewBox="0 0 300 300"><defs><style>.cls-1{fill:#f5a226;}.cls-2{fill:#fff;}.cls-2,.cls-3{fill-rule:evenodd;}.cls-3{fill:#efa430;}.cls-4{fill:#3b3b41;}</style></defs><title>logo</title><rect class="cls-1" width="300" height="300"/><path class="cls-2" d="M229.76,90.36c.68,18.06-18.71,11.27-35.31,51.69-13.8,33.61,5.95,108.18-56.19,101.1-49.87-5.68-40.91-115.77-30.83-138.46,21.16-47.59,62-65.49,60.44-28.62-.51,12.49-29.24,20.75-31.95,40.57-1.36,10,5.09,15.24,13.28,14.41,15.62-1.58,23.8-9.1,32-26.06C190.56,85.5,228.3,51.68,229.76,90.36Z"/><path class="cls-3" d="M151.47,223.63c7-1.91,13.76-7.4,14.29-5.53s-4.24,7.3-11.28,9.21-14.58,1.26-13.69-.48C141.47,225.49,144.43,225.54,151.47,223.63Z"/><path class="cls-4" d="M83.75,107.24a2.17,2.17,0,0,1-2.31,2.17,2,2,0,0,1-2.17-2v-.07c.07-6.86.27-23.22.27-32.86,0-3.39,0-5.91-.07-7-.14-2.58-.82-3.39-3.53-3.39a13.07,13.07,0,0,0-1.56.07h-.2a2,2,0,0,1-2.17-2,2.23,2.23,0,0,1,2.17-2.24c1.36-.07,1.9-.07,3.33-.07,3.87,0,6.11,1.9,6.25,5.5.07,1.15.07,3.06.07,5.36,0,6.45-.14,16.5-.14,26.21,0,3.53,0,7.06.07,10.32Z"/><path class="cls-4" d="M125.63,125.51c-2-.07-6.76-.07-11.58-.07s-9.57,0-11.64.07h-.13c-2.41,0-3.75-1.27-3.75-3a5.26,5.26,0,0,1,1.47-3.35c5-5.82,13-13,19.14-20.34,2.94-3.48,4.22-7,4.22-10,0-6-4.68-8.36-9.1-8.36a10,10,0,0,0-9.84,6.76,2.19,2.19,0,0,1-2.07,1.67,2.11,2.11,0,0,1-2.14-2.14c0-2.14,4.08-10,14.25-10,8.36,0,13.38,5.62,13.38,11.91,0,3.55-1.47,7.7-5,12.11-5.75,7.16-13.12,13-19.27,20.07a.51.51,0,0,0-.13.27c0,.33.4.54.87.54,6.62,0,16.06-.33,21.35-.33,1.67,0,2.48,1,2.48,2.07a2.23,2.23,0,0,1-2.41,2.14Z"/><path class="cls-4" d="M76.81,164.83c-4.34,0-6.58-2.48-6.58-3.79a1.56,1.56,0,0,1,1.55-1.52,1.44,1.44,0,0,1,1.17.67A4.58,4.58,0,0,0,76.84,162c2.93,0,3.57-2,3.57-2.85a3.52,3.52,0,0,0-2-3c-1.17-.67-2.61-1.47-4-2.11a5.3,5.3,0,0,1-3.41-4.8c0-2.59,2.08-5.06,5.76-5.06s5.78,1.76,5.78,3A1.55,1.55,0,0,1,81,148.73a1.69,1.69,0,0,1-1.25-.64,3.89,3.89,0,0,0-3.07-1.23,2.46,2.46,0,0,0-2.75,2.27,2.74,2.74,0,0,0,1.68,2.35c1.09.59,2.93,1.44,4.16,2.11,2.67,1.47,3.79,3.49,3.79,5.46C83.55,161.9,81.13,164.83,76.81,164.83Z"/><path class="cls-4" d="M106.66,164.59c-1.2,0-2.4-.88-2.88-2.83-.69-2.83-2.08-11.06-2.37-13.3-.05-.35-.13-.48-.21-.48s-.16.19-.21.48c-.35,2.43-1.63,10-2.48,13.27-.48,1.92-1.79,2.85-3.07,2.85a3.14,3.14,0,0,1-3-2.83c-2.85-13.49-3.23-15.51-3.23-16a1.49,1.49,0,0,1,1.63-1.41,1.51,1.51,0,0,1,1.6,1.17C95.15,160.86,95.2,161,95.57,161c.21,0,.4-.29.48-.69.51-2.21,1.95-10.29,2.64-13.83a2.41,2.41,0,0,1,2.45-2.08,2.55,2.55,0,0,1,2.59,2c.59,3,1.92,10.72,2.48,13.81.08.45.21.61.35.61.37,0,.53,0,3.55-15.3a1.45,1.45,0,0,1,1.49-1.15,1.56,1.56,0,0,1,1.68,1.39c0,.51-1.41,6.85-3.65,16.13A3.22,3.22,0,0,1,106.66,164.59Z"/><path class="cls-4" d="M123.61,163.15a1.61,1.61,0,0,1-3.2,0v0c.05-3.2.13-6.77.13-10.21,0-2.53-.05-5-.13-7.12-.05-1.12,1.15-1.41,1.63-1.41a1.41,1.41,0,0,1,1.57,1.31v.05c-.05,2.21-.08,4.72-.08,7.3,0,3.33,0,6.8.08,10.08Z"/><path class="cls-4" d="M132.3,163.29c.05-2.75.08-6,.08-9,0-2.67,0-5.2-.05-7.2v-.11c0-1.87,1-2.61,2.21-2.61a3.22,3.22,0,0,1,2.61,1.44c1.68,2.67,6.13,11,8.16,14,.16.24.29.37.37.37s.19-.08.19-1.12c0-2.51-.08-10.82-.16-13.27a1.55,1.55,0,0,1,3.09-.05v.05c-.05,1.87-.08,4.45-.08,7.12,0,3.39,0,6.88.08,9.2v.05a2.41,2.41,0,0,1-2.43,2.53,2.72,2.72,0,0,1-2.29-1.33c-1.87-3-6.85-12.07-8.29-14.5-.11-.16-.29-.51-.43-.51s-.16.27-.16,1.49c0,2.77.08,10.63.16,13.46v.05c0,.85-.75,1.25-1.52,1.25a1.38,1.38,0,0,1-1.55-1.28Z"/><path class="cls-4" d="M171.08,156.83c-.27,0-1.6,0-3.07.08H168a1.42,1.42,0,0,1-1.33-1.55c0-1.41,1.15-1.41,2-1.41,1.31,0,2.8.05,3.68.05,2.29,0,3.15,1.17,3.15,2.83,0,3-2.72,8-9.06,8a9.82,9.82,0,0,1-10-10.16c0-5.41,3.81-10.56,10.32-10.56,4.24,0,7.12,2.45,7.12,3.89a1.67,1.67,0,0,1-1.63,1.65,1.71,1.71,0,0,1-1.36-.72,5.62,5.62,0,0,0-4.4-1.89c-4.66,0-6.93,4.08-6.93,7.49s2.29,7.2,6.85,7.2c4.4,0,5.6-3.41,5.6-4.18,0-.51-.4-.75-.88-.75Z"/><path class="cls-4" d="M74.08,188.89l-1.78,0h0a1.1,1.1,0,1,1,0-2.19h0l1.78,0v-4l-2.06,0a1.1,1.1,0,1,1,0-2.2h6.3a1.1,1.1,0,0,1,0,2.2l-1.93,0v4l1.36,0h0a1.1,1.1,0,0,1,0,2.19h0l-1.36,0v4.34c.65-.29,1.25-.57,1.78-.86a1.27,1.27,0,0,1,.57-.16,1,1,0,0,1,1,1A1.19,1.19,0,0,1,79,194.3c-.94.5-6.22,3-7.21,3a1.18,1.18,0,0,1-1.18-1.2,1.12,1.12,0,0,1,.86-1.1c.86-.23,1.75-.55,2.61-.86Zm1.1,11.34a1.2,1.2,0,0,1,.91-1.18c4.18-1.23,6.19-4.73,6.38-8.57a1.2,1.2,0,0,1,1.23-1.28,1.29,1.29,0,0,1,1.36,1.23v.08c-.55,8.28-7,11-8.52,11A1.26,1.26,0,0,1,75.18,200.23Zm16.33-3.79a1,1,0,0,1,1.12-1,1.22,1.22,0,0,1,1.31,1.25c0,3.21-.91,4.42-4.31,4.42-2.82,0-3.45-1.2-3.45-3,0-1,.05-7.58.1-9.25H80.17a1.15,1.15,0,1,1,0-2.3H92.32a1.15,1.15,0,1,1,0,2.3H88.71c0,1.59-.13,7.05-.13,8.65,0,.78,0,1.28,1.1,1.28,1.41,0,1.83-.08,1.83-2v-.29ZM81.19,182.62a1.17,1.17,0,0,1-1.25-1.18,1.16,1.16,0,0,1,1.25-1.18h9.22a1.17,1.17,0,0,1,1.25,1.18,1.16,1.16,0,0,1-1.25,1.18Z"/><path class="cls-4" d="M108.83,180.74H112c.91,0,2.61,0,2.61,1.36,0,.34,0,1-1.86,2.69,1.2,0,2.43,0,3.68.05a2.82,2.82,0,0,1,3,2.43,14.39,14.39,0,0,1,.05,1.59,15.39,15.39,0,0,1-.05,1.62,2.78,2.78,0,0,1-2.93,2.33c-1.72.08-3.53.1-5.33.1-1.23,4-4.13,7.08-10,8.65a1.45,1.45,0,0,1-.47.05,1.27,1.27,0,0,1-1.33-1.23,1.25,1.25,0,0,1,1.07-1.18c4.68-1.2,7.05-3.47,8.15-6.32l-3.14-.08c-1.93-.05-2.9-1-3-2.27,0-.44,0-1,0-1.52s0-1.1,0-1.52c-1,.73-1.25.86-1.65.86a1.25,1.25,0,0,1-1.25-1.23,1.21,1.21,0,0,1,.63-1,21.67,21.67,0,0,0,6.53-6.79,1.32,1.32,0,0,1,1.15-.71,1.28,1.28,0,0,1,1.33,1.15,1.13,1.13,0,0,1-.18.6Zm-2.56,6.19c-.86,0-1.31.5-1.33,1,0,.26,0,.68,0,1.07,0,1.83,0,1.83,4.29,1.83q.16-.9.23-1.88c0-.1,0-.37,0-2C108.31,186.88,107.24,186.9,106.27,186.93Zm-.68-2.09c1.49,0,2.93-.08,4.39-.08.55-.52,1.57-1.49,1.57-1.93,0-.16-.1-.24-.34-.24l-3.81.05c-.63.76-1.28,1.49-2,2.19Zm7.76,9.72c0,1.07-.08,1.93-.08,2.87,0,1.44.1,1.65,2.8,1.65,1.83,0,3.5,0,3.5-2.48a1.14,1.14,0,0,1,1.23-1.18,1.35,1.35,0,0,1,1.44,1.36c0,4.29-3.06,4.55-6.45,4.55-4.42,0-4.94-.91-4.94-3.68,0-1.07,0-2.27.08-3.14a1.12,1.12,0,0,1,1.23-1,1.1,1.1,0,0,1,1.2,1Zm-1.67-3.76c1.44,0,2.85,0,4.08-.05s1.33-.65,1.33-1.93c0-.34,0-.71,0-.94-.05-1-.57-1-5.07-1A23.26,23.26,0,0,1,111.68,190.8Zm5.07,6.17a8.69,8.69,0,0,0-2.17-1.49,1,1,0,0,1-.6-.89,1,1,0,0,1,1.07-1,7.87,7.87,0,0,1,3.21,1.65,1.22,1.22,0,0,1,.44.91,1.18,1.18,0,0,1-1.12,1.18A1.2,1.2,0,0,1,116.75,197Z"/></svg>