<svg id="图层_1" data-name="图层 1" xmlns="http://www.w3.org/2000/svg" viewBox="0 0 500 500"><defs><style>.cls-1{fill:#040000;}</style></defs><title>国际教材</title><path class="cls-1" d="M426.78,73.22A250,250,0,0,0,73.22,426.78,250,250,0,0,0,426.78,73.22ZM485.44,250q0,5.75-.28,11.46c-2.8,2-5.29,3.88-7.52,5.52s-4.53,3.34-6.5,4.75q0-1.25,0-2.62c0-10.4-7-21.34-20.76-32.5a138.59,138.59,0,0,0-19.18-13l-8.44-4.56-2.12,9.36c-9.84,43.39-21.73,92.4-24.51,98.39-2.52,4-5.66,13.64-10.5,28.87-3.14,9.88-6.39,20.09-8.45,24.62-4,8.72-22.24,23.08-27.86,24.12-2.45-1.77-9.87-12.22-18-42.53-6.71-24.93-12.31-37.33-26-40.36-2.55-.57-16-4.55-30.59-27.47-8.44-13.26-20.84-16-29-17.79a39.82,39.82,0,0,1-5.94-1.59c.73-28.64-8.11-39.68-13.12-43.62-4-10.07-8.08-27.63-2-32,24.47-14.55,32.4-35.3,34.73-50.17a78.4,78.4,0,0,0,.93-10.64c14.61,13.74,29.71,32.59,29.9,32.84l8.19,10.26,10.23-29c5.65-16,1.83-38.27.58-44.5a9.38,9.38,0,0,1,.33-.93,12.27,12.27,0,0,1,1.52,1c12.47,9.35,22.24,7.37,25.8,6.12,2.77-.49,10.77-2.31,23.23-8.32,7.76-3.74,10.59-9.09,11.59-12.91,2.2-8.37-2.41-15.82-3.32-17.18-9.28-14.47-10.1-26.89-9.31-34.43A236,236,0,0,1,485.44,250ZM208.33,37.89l.28.6L209,39c5.53,7.74,10.39,17.33,11.19,21.72-31.08.77-51.31,5.54-64,10,2.09-3.17,4.38-6.43,6.61-9.34,6.06-7.88,7.27-24.19,7.47-33A233.68,233.68,0,0,1,215.1,17.12C208.36,26.37,206.14,33.22,208.33,37.89ZM65.12,149.32c1.15,3.52,1.94,12.46-5.64,32.69a215.35,215.35,0,0,1-9.81,22.07L35.73,221.5l-.4,1.05a48.27,48.27,0,0,0-2.86,12.87c-2.46,2.19-9.54,6.19-17.84,10.17a233.51,233.51,0,0,1,47.89-138C61.65,121.57,61.62,138.59,65.12,149.32ZM25.49,321.23c8.77-9.3,19.4-16.87,22.69-15.92.19.06,1.38,1.37,2,5.82,4.47,31.28,5.18,36.92,5.19,37h0c.37,3.31,3,14.5,21.56,16.11,13.81,1.2,32.1,9.6,39.63,25.2l.21.4c1.12,2,2,3.63,2.76,5.08,3.63,6.85,5.28,9.45,12.94,13.91,1.15.67,2.53,1.31,4.14,2,10.77,4.94,35.1,16.11,35.71,61.51A236.41,236.41,0,0,1,25.49,321.23Zm391,95.25a233.9,233.9,0,0,1-166.48,69,236.63,236.63,0,0,1-63.1-8.51c1.1-58.52-31.62-73.54-44.18-79.3-1.21-.55-2.34-1.08-2.87-1.39-4.46-2.6-4.57-2.81-7.41-8.16-.74-1.4-1.66-3.13-2.82-5.2-10.11-20.7-33.07-31.57-51.39-33.17-6-.52-8-2.36-8.33-3.09l0-.33c0-.22-.71-5.63-5.22-37.23-1.74-12.18-7.67-16.37-12.34-17.74-10.23-3-22.59,5.77-31.25,13.77a236.28,236.28,0,0,1-6.19-43.58c3.16-1.42,7.53-3.45,12-5.72C41.68,248.19,47,243.36,47,237.37a31,31,0,0,1,1.62-8.62l13.31-16.64.32-.59c2.45-4.58,23.72-45.34,16.76-66.71-4.38-13.43-1.73-43.48,0-56.57q2.26-2.38,4.58-4.72A235.3,235.3,0,0,1,155.34,34.3c-.58,7.55-1.9,15.3-4.12,18.18-3.45,4.49-16.58,22.87-17.71,30.75a7.77,7.77,0,0,0,3.06,7.55,7.22,7.22,0,0,0,4.35,1.47c2.39,0,4.69-1.14,6.82-2.19,7.68-3.79,28.08-13.87,74.48-14.79l.46,0c6.88-.57,9.78-4.7,10.9-7.11,2.64-5.71,1.12-13.55-4.79-24.67-2.28-4.3-4.74-8.16-6.31-10.51.92-2.25,3.88-7.7,13.34-18,4.7-.28,9.43-.43,14.18-.43a234.85,234.85,0,0,1,95.45,20.08c-1.93,9.49-2.83,27.84,10.77,49l.14.22c.3.44,1.83,3.28,1.3,5.32-.41,1.56-2.31,2.76-3.84,3.5-12.63,6.09-19.71,7.14-19.72,7.14l-1-.16-1.23.78c-.91.25-5.21,1-12-4.1C312.79,91,307.29,91.61,303.92,93c-7.52,3.15-9.09,12.14-9.33,13.91l-.18,1.31.3,1.29c1.5,6.52,4.46,26.06.23,38l-1.6,4.53c-9.52-11.05-25.38-28.37-37.9-36.52l-15.91-10.35,4.9,18.33c.11.41,10.4,40.81-27.36,63.12l-.33.21c-19.19,12.79-4.37,48-2.62,52l.49,2.67,2.9.93c1.23,1,8.4,7.78,7.69,32.3V275c0,11.72,10.46,14,17.38,15.55,7.23,1.59,14.7,3.24,19.9,11.39,11.63,18.26,26.48,30.92,39.71,33.86,3.92.87,8,3.82,15.05,29.93,13.23,49.14,24.87,52.05,28.7,53a11.81,11.81,0,0,0,2.88.34c5.82,0,13.4-3.73,22.61-11.12,7-5.64,15.71-14.27,19-21.58,2.42-5.32,5.65-15.48,9.07-26.23,2.91-9.14,7.3-22.95,8.91-25.46,1.18-1.77,3.16-4.74,15.18-54.82,3.51-14.62,6.87-29.09,9-38.3,10.81,7.28,24,18.64,24,27.57,0,1.61,0,3.07,0,4.39-.1,7.3-.17,13.07,5.25,15.85s9.91,0,21.63-8.57A233.65,233.65,0,0,1,416.48,416.48Z"/></svg>