<svg id="图层_1" data-name="图层 1" xmlns="http://www.w3.org/2000/svg" viewBox="0 0 500 500"><defs><style>.cls-1{fill:#040000;}</style></defs><title>升学之路</title><path class="cls-1" d="M495.83,159.24,253.11,44.54a7.29,7.29,0,0,0-6.25,0L4.14,160.41a7.28,7.28,0,0,0-.49,12.88l36,20.67V405.19L5.05,444a7.28,7.28,0,0,0,5.44,12.12H83.32A7.28,7.28,0,0,0,88.76,444L54.19,405.19V202.33l30.39,17.46V278.2a7.28,7.28,0,0,0,7.28,7.28H408.14a7.28,7.28,0,0,0,7.28-7.28V219.74l81-47.64a7.28,7.28,0,0,0-.58-12.86ZM26.72,441.6l20.19-22.68L67.09,441.6ZM400.86,270.92H99.14V185a488.48,488.48,0,0,1,215.39-20.68c44.21,5.78,75.3,16.29,86.33,20.41Zm14.56-68.08V179.72A7.28,7.28,0,0,0,411,173c-1.47-.63-36.63-15.55-94-23.12A503.15,503.15,0,0,0,89.5,172.83a7.28,7.28,0,0,0-4.92,6.89V203L22.94,167.57,250,59.18,477.16,166.52Z"/></svg>