<svg id="图层_1" data-name="图层 1" xmlns="http://www.w3.org/2000/svg" viewBox="0 0 500 500"><defs><style>.cls-1{fill:#040000;}</style></defs><title>展现自我</title><path class="cls-1" d="M492.69,49.3H7.31a7.28,7.28,0,1,0,0,14.56H40.07V443.42a7.28,7.28,0,0,0,14.56,0V252.5a222.09,222.09,0,0,0,33.17-7.75c5.46,6.22,17.66,21.8,27.67,46.59,12.24,30.31,23.61,81,8.26,150.5A7.28,7.28,0,1,0,138,445c16.25-73.58,3.91-127.58-9.31-159.92-9-21.92-19.42-37.08-26.28-45.63a157.55,157.55,0,0,0,30.13-16.37,135,135,0,0,0,41.6-46.38C191,145.66,191,117.26,191,115.33V63.86H309v51.46c0,1.94,0,30.33,16.86,61.36a135,135,0,0,0,41.6,46.38,157.56,157.56,0,0,0,30.13,16.37c-6.86,8.55-17.32,23.71-26.28,45.63C358.13,317.41,345.78,371.41,362,445a7.28,7.28,0,1,0,14.22-3.14c-15.35-69.48-4-120.19,8.26-150.5,10-24.79,22.21-40.37,27.67-46.59a222.09,222.09,0,0,0,33.17,7.75V443.42a7.28,7.28,0,0,0,14.56,0V63.86h32.76a7.28,7.28,0,0,0,0-14.56ZM104,63.86v58.33c0,.09,0,.18,0,.27,0,1,2.9,96.2-49.34,113.25V63.86Zm72.43,51.62c0,.26.22,26.11-15.09,54.24a120.56,120.56,0,0,1-37.16,41.41,147.25,147.25,0,0,1-34.76,17.71c9.92-11.72,17.52-27.6,22.53-47.35a234.31,234.31,0,0,0,6.61-59.43V63.86H176.4v51.51S176.4,115.45,176.4,115.49ZM339,170.31c-15.52-28.17-15.41-54.57-15.41-54.82,0,0,0-.07,0-.11V63.86h57.86v58.2a234.29,234.29,0,0,0,6.61,59.43c5,19.81,12.65,35.71,22.61,47.44C378.14,217.32,354.11,197.7,339,170.31Zm106.36,65.41C393.12,218.66,396,123.47,396,122.47c0-.09,0-.18,0-.28V63.86h49.34Z"/></svg>